<?xml version="1.0" standalone="no"?>
<!DOCTYPE svg PUBLIC "-//W3C//DTD SVG 20010904//EN"
 "http://www.w3.org/TR/2001/REC-SVG-20010904/DTD/svg10.dtd">
<svg version="1.0" xmlns="http://www.w3.org/2000/svg"
 width="4208.000000pt" height="3120.000000pt" viewBox="0 0 4208.000000 3120.000000"
 preserveAspectRatio="xMidYMid meet">
<metadata>
Created by potrace 1.15, written by Peter Selinger 2001-2017
</metadata>
<g transform="translate(0.000000,3120.000000) scale(0.100000,-0.100000)"
fill="#000000" stroke="none">
<path d="M0 15600 l0 -15600 21040 0 21040 0 0 15600 0 15600 -12311 0 c-9517
0 -12315 -3 -12332 -12 -31 -17 -299 -17 -305 0 -3 9 -1868 12 -8568 12
l-8564 0 0 -15600z m9099 13265 c98 -5 170 -3 222 6 63 10 81 10 93 -1 13 -10
19 -10 31 0 11 10 24 9 62 -4 59 -20 92 -20 115 0 18 17 31 16 153 -12 11 -2
58 -7 104 -9 46 -3 91 -10 100 -14 9 -5 52 -3 101 4 83 13 85 13 102 -8 9 -12
23 -29 31 -38 8 -9 17 -23 20 -30 4 -11 6 -10 6 2 2 43 135 93 182 69 15 -9
18 -15 10 -23 -6 -6 -11 -20 -11 -32 -1 -24 -22 -55 -40 -55 -6 0 -25 -9 -41
-21 -24 -17 -28 -25 -22 -47 6 -27 40 -59 57 -54 9 3 26 -17 26 -31 0 -5 -21
-7 -47 -5 -46 3 -48 5 -53 38 -3 23 -12 38 -27 45 -12 5 -24 17 -26 27 -7 25
-27 22 -27 -4 0 -12 -3 -18 -7 -14 -8 8 -9 13 -12 41 -1 11 -13 15 -41 15 -37
0 -40 2 -40 28 0 41 -11 53 -34 37 -12 -9 -17 -22 -13 -34 4 -17 -1 -21 -32
-27 -20 -3 -43 -8 -51 -11 -8 -3 -37 -7 -64 -9 -62 -3 -82 -21 -60 -52 8 -12
32 -30 52 -39 42 -18 38 -18 73 -9 23 5 27 2 31 -19 5 -22 2 -25 -23 -25 -15
0 -30 4 -33 9 -6 10 -44 3 -62 -10 -6 -5 -13 -7 -16 -4 -10 11 -313 13 -325 3
-18 -14 -195 -10 -268 6 -37 9 -93 12 -145 9 -160 -8 -192 -9 -239 -3 -28 3
-56 0 -71 -7 -29 -15 -100 -17 -100 -4 0 5 -52 8 -122 5 -67 -2 -126 1 -133 6
-6 5 -26 5 -48 0 -21 -4 -48 -6 -60 -4 -12 2 -39 7 -60 10 -27 4 -37 10 -33
20 3 7 1 16 -4 19 -4 3 -10 0 -12 -7 -3 -7 -33 -12 -82 -14 -42 -1 -80 -5 -83
-8 -4 -3 -24 -6 -45 -6 -26 0 -38 4 -38 14 0 8 -2 20 -5 28 -3 8 7 18 24 26
33 15 49 56 29 79 -10 12 -9 18 6 28 13 10 16 21 11 47 -8 43 -4 53 18 50 10
-2 24 1 30 6 7 5 74 12 150 15 106 4 144 2 165 -9 23 -11 40 -11 88 -3 32 6
98 12 146 13 48 1 91 5 94 9 4 4 46 5 93 2 47 -2 151 -7 230 -10z m-1080 -29
c21 -25 -2 -54 -36 -48 -23 4 -26 3 -16 -9 11 -14 7 -68 -6 -70 -49 -6 -68
-12 -78 -26 -9 -12 -22 -14 -57 -9 -48 8 -60 20 -26 29 19 5 27 39 22 100 -1
12 6 17 23 17 14 0 25 5 25 10 0 6 6 10 13 10 19 0 67 -24 67 -33 0 -5 7 -2
15 7 8 8 15 19 15 25 0 16 26 13 39 -3z m1211 -366 c57 -17 161 -21 227 -8 60
11 64 11 87 -11 14 -13 35 -23 48 -22 13 0 77 3 143 6 71 3 130 1 145 -5 30
-12 87 -13 368 -8 193 4 214 2 222 -13 12 -21 -3 -34 -47 -43 -27 -6 -48 -28
-45 -47 0 -3 -23 -11 -51 -19 -29 -7 -56 -15 -62 -19 -18 -11 -125 -7 -129 6
-3 7 -20 10 -43 8 -81 -8 -140 -8 -151 -1 -7 4 -22 6 -35 5 -12 -1 -30 1 -39
6 -10 4 -25 5 -33 2 -8 -4 -17 -2 -20 3 -4 6 -13 7 -23 1 -10 -5 -38 -10 -62
-11 -25 -1 -58 -2 -75 -4 -16 -1 -35 2 -42 7 -7 5 -25 5 -45 -2 -42 -13 -127
-16 -200 -7 -45 6 -61 4 -82 -9 -25 -17 -86 -13 -86 5 0 14 -56 19 -96 8 -21
-6 -88 -11 -148 -12 -79 -1 -111 -5 -114 -14 -2 -8 -8 -10 -15 -3 -15 12 -99
17 -115 7 -6 -4 -20 -2 -30 3 -11 6 -73 12 -138 14 -66 1 -124 5 -129 9 -6 3
-32 5 -60 5 -35 -1 -49 3 -47 12 2 8 -9 11 -35 9 -30 -2 -39 -8 -41 -24 -4
-29 -39 -37 -76 -19 -16 8 -40 15 -54 15 -14 0 -33 7 -43 16 -14 12 -22 13
-38 4 -12 -6 -21 -8 -21 -4 0 3 -6 2 -13 -4 -18 -16 -79 -12 -99 6 -10 8 -42
17 -72 19 -63 4 -141 36 -156 62 -7 15 -4 24 17 45 25 26 43 33 43 19 0 -5 10
-9 23 -9 12 -1 50 -6 83 -11 34 -5 70 -7 80 -3 36 11 286 1 300 -12 4 -4 12
-4 18 -1 6 4 17 8 26 8 8 1 25 5 38 9 13 5 22 3 22 -3 0 -6 16 -11 35 -11 19
0 35 5 35 11 0 7 19 9 58 4 109 -12 442 -8 442 6 0 5 50 6 111 3 86 -4 109 -2
103 7 -4 7 -3 10 3 6 5 -3 23 -2 39 3 40 12 54 12 94 0z m4858 -510 c13 0 22
-6 22 -15 0 -11 11 -15 40 -15 22 0 40 4 40 8 0 4 80 8 177 8 131 -1 177 -4
180 -13 6 -17 43 2 43 22 0 18 5 18 29 5 10 -5 40 -11 67 -13 45 -4 49 -7 52
-32 2 -16 -2 -32 -10 -36 -7 -5 -56 -6 -108 -3 -52 2 -180 6 -284 8 -170 2
-190 5 -202 21 -8 10 -14 14 -14 8 0 -19 -32 -25 -122 -23 -54 0 -98 7 -115
15 -24 13 -19 21 10 16 4 0 7 4 7 9 0 6 7 10 15 10 8 0 15 4 15 9 0 10 80 20
115 15 11 -2 30 -4 43 -4z m20230 -124 c7 -4 12 -12 12 -18 0 -18 -50 -55 -89
-66 -61 -18 -125 -34 -146 -38 -36 -6 -79 -15 -144 -31 -75 -17 -90 -10 -72
35 15 35 75 67 141 77 24 3 50 11 57 16 35 29 206 47 241 25z m-26583 -1155
c50 0 115 0 145 0 96 2 488 -11 670 -21 247 -14 356 -19 510 -25 74 -3 187 -7
250 -10 63 -3 183 -7 265 -11 208 -8 307 -12 400 -18 44 -3 166 -8 270 -11
105 -3 246 -8 315 -11 69 -4 186 -8 260 -10 74 -3 218 -9 320 -15 217 -12 294
-16 530 -23 96 -3 191 -8 210 -11 19 -3 125 -8 235 -11 110 -3 216 -7 235 -9
19 -2 107 -6 195 -9 202 -8 322 -16 360 -24 17 -4 114 -6 218 -5 103 1 187 -1
187 -5 0 -4 37 -7 83 -7 45 0 104 -2 130 -6 26 -3 50 -2 53 3 3 5 8 6 12 4 7
-4 158 -12 407 -21 61 -2 144 -7 185 -10 69 -5 213 -10 515 -20 66 -2 156 -6
200 -9 44 -3 154 -8 245 -11 91 -3 172 -8 180 -10 25 -6 271 -16 540 -21 140
-3 309 -7 375 -9 66 -2 208 -7 315 -10 107 -3 213 -8 235 -10 53 -7 175 -12
485 -21 140 -4 287 -8 325 -10 86 -3 359 -11 645 -19 118 -3 249 -7 290 -10
41 -3 140 -7 220 -10 154 -5 426 -16 550 -20 41 -2 142 -6 225 -9 82 -3 162
-8 178 -12 16 -3 34 -1 42 6 9 7 20 8 32 2 20 -10 133 -10 150 1 6 4 13 2 15
-3 2 -7 79 -11 216 -13 116 -1 212 -4 212 -7 0 -3 51 -6 113 -8 61 -2 166 -4
232 -6 169 -4 477 -14 630 -20 147 -6 414 -14 710 -21 110 -3 254 -7 320 -10
66 -3 215 -8 330 -11 116 -3 244 -7 285 -8 41 -2 201 -7 355 -10 486 -12 1107
-35 1114 -41 2 -3 10 0 18 6 7 7 13 7 13 2 0 -6 76 -10 188 -12 231 -2 523 -9
662 -17 58 -3 110 -6 115 -5 31 1 172 -2 250 -6 50 -2 169 -6 265 -7 96 -2
265 -7 375 -10 110 -4 259 -9 330 -11 72 -2 209 -6 305 -9 96 -3 279 -8 405
-11 127 -4 271 -8 320 -11 119 -5 535 -16 710 -19 77 -1 208 -5 290 -9 83 -4
224 -9 315 -11 91 -2 237 -6 325 -10 181 -7 292 -10 615 -19 124 -4 297 -9
385 -12 88 -4 207 -8 265 -9 132 -3 448 -14 560 -19 266 -13 427 -19 520 -21
121 -3 338 -11 490 -19 97 -5 280 -12 540 -20 161 -5 507 -19 720 -31 41 -2
152 -8 245 -15 94 -6 240 -15 325 -20 85 -5 205 -14 265 -20 97 -9 215 -18
475 -33 197 -12 391 -28 452 -38 37 -6 71 -8 75 -6 5 3 44 2 88 -3 44 -5 123
-11 175 -15 52 -3 133 -10 180 -15 47 -6 132 -10 190 -10 138 0 174 -10 187
-53 14 -47 9 -76 -83 -492 -14 -66 -28 -139 -31 -162 -3 -24 -10 -43 -17 -43
-7 0 -6 -4 3 -9 11 -7 11 -15 1 -47 -7 -22 -16 -47 -21 -56 -5 -10 -9 -24 -9
-32 0 -8 -7 -17 -16 -20 -8 -3 -12 -10 -9 -16 3 -5 1 -10 -5 -10 -6 0 -9 -4
-6 -9 3 -5 -1 -11 -9 -15 -10 -3 -13 -14 -10 -33 7 -34 -17 -212 -40 -308 -9
-38 -21 -88 -25 -110 -4 -22 -15 -71 -24 -110 -9 -38 -16 -86 -16 -105 -1 -35
-27 -157 -29 -132 -1 6 -5 12 -10 12 -9 0 -35 -93 -50 -183 -6 -32 -13 -62
-16 -67 -3 -5 -8 -33 -11 -62 -3 -29 -9 -62 -13 -73 -35 -80 -67 -255 -52
-283 15 -29 12 -122 -5 -129 -18 -7 -74 -105 -74 -130 0 -11 -3 -23 -7 -27 -4
-4 -15 -44 -25 -89 -9 -45 -27 -122 -38 -172 -28 -118 -42 -203 -41 -240 5
-119 -12 -203 -49 -242 -19 -21 -28 -60 -46 -198 -3 -22 -10 -49 -14 -60 -11
-24 -29 -143 -37 -242 -4 -53 -1 -86 11 -122 17 -52 22 -131 8 -131 -4 0 -16
-17 -27 -37 -11 -21 -28 -45 -37 -55 -11 -11 -18 -33 -18 -55 0 -21 -7 -76
-15 -123 -37 -215 -55 -380 -42 -400 6 -11 18 -20 24 -20 13 0 12 -55 -3 -125
-7 -34 -31 -65 -50 -65 -7 0 -16 -15 -19 -32 -5 -32 -32 -254 -41 -331 -2 -21
-8 -66 -14 -100 -13 -81 -13 -137 1 -137 6 0 9 -6 6 -12 -2 -7 0 -21 5 -31 12
-23 -9 -133 -33 -173 -11 -18 -16 -39 -13 -48 4 -11 1 -16 -11 -16 -9 0 -14
-4 -11 -8 5 -9 -16 -200 -34 -310 -19 -110 -24 -218 -11 -226 18 -12 13 -88
-9 -124 -11 -18 -20 -44 -20 -58 0 -14 -7 -38 -15 -54 -17 -33 -28 -104 -50
-315 -9 -82 -18 -169 -21 -193 -2 -24 1 -53 8 -65 20 -37 18 -56 -14 -184 -6
-24 -14 -43 -19 -43 -4 0 -11 -21 -14 -47 -3 -27 -8 -61 -11 -78 -7 -46 -23
-198 -33 -315 -8 -87 -7 -109 5 -128 8 -12 15 -35 15 -50 1 -50 -13 -132 -22
-132 -5 0 -8 -3 -7 -8 1 -4 -6 -25 -15 -46 -16 -36 -40 -190 -51 -326 -3 -30
-8 -83 -12 -117 -5 -50 -3 -69 14 -105 14 -29 19 -57 16 -88 -6 -69 -15 -110
-25 -110 -5 0 -9 -7 -9 -16 0 -9 -9 -28 -19 -42 -15 -22 -20 -52 -25 -157 -3
-72 -9 -146 -12 -165 -11 -70 -16 -222 -6 -216 21 13 36 -27 36 -94 0 -54 -6
-79 -27 -119 -32 -63 -36 -91 -42 -333 -4 -199 1 -250 32 -275 9 -7 16 -41 20
-101 l6 -90 -33 -32 -32 -32 6 -201 c7 -234 11 -281 30 -322 24 -50 29 -122
16 -201 -7 -41 -16 -74 -20 -74 -4 0 -3 -23 1 -52 5 -29 13 -113 19 -187 20
-262 22 -274 46 -298 16 -16 28 -112 20 -155 -16 -84 -17 -125 -1 -259 9 -79
20 -185 25 -236 6 -68 15 -107 36 -148 18 -38 27 -72 27 -103 -1 -42 0 -44 7
-17 7 26 8 23 7 -20 0 -27 -6 -64 -13 -80 -7 -17 -10 -41 -8 -55 3 -14 11 -79
19 -145 8 -66 18 -145 24 -175 5 -30 10 -80 10 -111 1 -41 7 -63 22 -83 23
-29 71 -156 59 -156 -4 0 -7 -14 -8 -32 0 -17 -6 -34 -13 -39 -10 -6 -10 -26
0 -95 7 -48 15 -93 19 -99 4 -5 5 -18 4 -28 -5 -25 56 -275 76 -314 15 -29 29
-39 86 -57 13 -4 16 -11 10 -24 -4 -9 -9 -37 -12 -62 -2 -25 -9 -48 -15 -52
-15 -9 -23 -168 -8 -168 6 0 11 -14 11 -31 0 -17 6 -54 14 -82 8 -29 19 -79
26 -112 31 -150 53 -220 76 -248 13 -16 24 -36 25 -45 0 -9 3 -28 5 -42 2 -14
6 -59 7 -100 2 -48 18 -130 44 -225 22 -82 51 -195 64 -250 19 -80 30 -106 56
-134 17 -19 37 -48 43 -65 7 -17 15 -38 19 -46 12 -24 13 -98 1 -105 -5 -3
-10 -19 -10 -35 0 -30 33 -167 50 -205 4 -11 18 -58 30 -105 40 -157 52 -191
74 -215 13 -14 33 -25 44 -25 11 0 23 -6 26 -12 4 -9 8 -9 11 -3 3 6 22 9 42
7 29 -4 35 -2 30 10 -9 24 68 19 83 -6 13 -20 12 -22 -31 -109 -43 -87 -50
-97 -67 -97 -10 0 -28 -7 -41 -16 -19 -14 -22 -22 -17 -53 20 -120 30 -167 38
-176 4 -5 8 -16 8 -25 0 -8 6 -26 13 -40 8 -15 17 -48 20 -74 8 -56 31 -128
54 -167 20 -34 62 -47 78 -25 10 13 15 12 39 -7 22 -18 28 -31 29 -62 1 -61
-14 -138 -31 -157 -11 -13 -13 -30 -9 -61 6 -44 41 -172 71 -257 9 -25 33 -97
53 -160 28 -84 43 -117 59 -124 11 -5 28 -29 38 -53 10 -23 22 -43 27 -43 8 0
39 -51 39 -65 0 -3 -6 -5 -12 -5 -20 0 -17 -156 3 -200 49 -105 93 -250 109
-354 11 -70 10 -82 -6 -111 -20 -38 -11 -36 -284 -66 -52 -6 -126 -12 -165
-14 -38 -1 -104 -6 -145 -10 -41 -4 -124 -11 -185 -16 -60 -4 -123 -10 -140
-13 -16 -3 -79 -8 -140 -11 -153 -8 -212 -12 -350 -26 -66 -6 -138 -11 -160
-11 -22 1 -70 -3 -107 -9 -36 -5 -139 -11 -229 -15 -90 -3 -167 -7 -171 -10
-4 -3 -58 -7 -120 -10 -62 -2 -147 -9 -188 -14 -41 -6 -137 -12 -214 -16 -76
-3 -148 -9 -160 -13 -11 -5 -65 -7 -118 -5 -62 3 -98 1 -98 -6 0 -6 -26 -9
-65 -7 -36 1 -65 -1 -65 -6 0 -4 -33 -8 -72 -8 -80 0 -203 -5 -288 -12 -30 -3
-111 -8 -180 -11 -69 -4 -141 -9 -160 -12 -19 -3 -71 -8 -115 -10 -44 -2 -110
-5 -147 -7 -43 -3 -69 0 -71 7 -3 7 -9 7 -20 -2 -9 -8 -21 -11 -27 -7 -6 4
-16 2 -23 -4 -7 -5 -66 -12 -132 -15 -66 -2 -141 -8 -167 -12 -33 -4 -52 -3
-63 6 -8 7 -15 9 -15 4 0 -9 -31 -11 -250 -19 -69 -2 -168 -7 -220 -11 -147
-10 -194 -12 -353 -18 -82 -2 -183 -7 -225 -10 -43 -4 -151 -9 -242 -12 -91
-4 -181 -8 -200 -10 -52 -5 -321 -18 -585 -29 -66 -3 -329 -8 -585 -11 -256
-3 -501 -7 -545 -9 -44 -2 -199 -7 -345 -10 -300 -6 -610 -15 -625 -17 -5 0
-20 2 -32 6 -13 4 -23 3 -23 -1 0 -5 -87 -10 -192 -12 -226 -3 -455 -9 -623
-16 -110 -5 -220 -8 -605 -19 -74 -2 -281 -7 -460 -10 -179 -4 -341 -9 -360
-10 -19 -2 -118 -5 -220 -6 -102 -1 -187 -5 -190 -9 -3 -3 -56 -4 -118 -1 -63
3 -112 1 -112 -4 0 -5 -35 -6 -79 -3 -44 3 -115 1 -158 -4 -43 -5 -127 -9
-188 -8 -153 0 -196 -1 -305 -7 -52 -3 -138 -6 -190 -8 -405 -16 -645 -26
-755 -32 -124 -6 -338 -15 -358 -15 -10 0 -21 -7 -24 -15 -3 -8 -10 -14 -15
-14 -6 0 -7 7 -4 16 3 8 2 13 -2 10 -4 -2 -79 -8 -167 -11 -88 -4 -182 -9
-210 -11 -141 -10 -302 -16 -650 -28 -77 -2 -187 -7 -245 -11 -121 -8 -255
-13 -495 -19 -93 -2 -231 -9 -305 -15 -74 -6 -236 -13 -358 -16 -123 -3 -227
-7 -230 -9 -4 -2 -66 -7 -137 -10 -291 -14 -344 -17 -427 -22 -48 -3 -113 -9
-145 -14 -33 -4 -62 -4 -67 1 -14 12 -44 11 -48 -2 -2 -7 -12 -7 -32 1 -17 6
-32 7 -35 2 -3 -5 -85 -12 -181 -15 -110 -3 -192 -11 -221 -20 -26 -8 -53 -11
-60 -6 -7 4 -17 6 -21 3 -9 -6 -182 -15 -285 -16 -75 0 -82 -4 -60 -27 6 -8 0
-6 -16 4 -24 16 -27 16 -21 1 8 -21 -12 -21 -25 1 -8 15 -16 16 -70 7 -34 -6
-61 -6 -61 -2 0 12 -54 10 -67 -3 -6 -6 -17 -8 -24 -4 -17 11 -123 9 -146 -3
-10 -5 -117 -10 -238 -11 -172 -1 -360 -7 -360 -11 0 -1 -153 -10 -180 -11
-11 0 -72 -5 -135 -10 -63 -5 -167 -12 -230 -14 -63 -2 -185 -7 -270 -11 -85
-4 -181 -8 -212 -8 -32 -1 -58 -3 -58 -6 0 -3 -33 -5 -72 -5 -70 -1 -386 -12
-533 -20 -38 -2 -122 -5 -187 -7 -64 -1 -115 -5 -113 -8 2 -3 -58 -7 -133 -8
-178 -4 -316 -9 -592 -21 -124 -6 -295 -13 -380 -16 -85 -3 -162 -8 -170 -10
-8 -3 -111 -7 -229 -10 -138 -3 -219 -9 -227 -16 -11 -9 -14 -8 -14 2 0 9 -3
10 -11 2 -8 -8 -21 -8 -46 0 -24 8 -36 8 -41 0 -5 -7 -52 -10 -130 -9 -68 0
-126 -2 -128 -6 -2 -4 -12 -6 -22 -6 -55 2 -491 -17 -642 -27 -30 -2 -99 -6
-152 -9 -54 -2 -103 -8 -109 -12 -8 -5 -9 -3 -5 5 6 9 -1 11 -26 6 -18 -3 -96
-7 -174 -9 -77 -1 -145 -6 -151 -9 -6 -4 -23 -3 -38 3 -18 7 -33 7 -45 0 -25
-14 -117 -13 -126 1 -5 8 -9 8 -14 -1 -5 -8 -49 -13 -126 -16 -66 -3 -125 -7
-132 -9 -6 -2 -141 -7 -300 -10 -158 -3 -316 -8 -352 -12 -84 -8 -130 -10
-333 -17 -92 -3 -182 -8 -200 -11 -17 -3 -115 -7 -217 -8 -102 -2 -190 -6
-196 -10 -6 -3 -110 -6 -230 -6 -121 0 -257 -3 -304 -6 -123 -8 -251 -14 -445
-19 -93 -3 -199 -8 -235 -11 -73 -6 -403 -17 -585 -20 -123 -2 -399 -11 -560
-19 -49 -2 -97 -7 -106 -11 -10 -3 -20 -1 -24 4 -3 6 -9 9 -13 7 -6 -3 -210
-19 -237 -18 -5 1 -109 3 -230 5 -224 5 -289 10 -337 29 -25 9 -28 16 -29 57
0 25 -2 107 -4 181 -2 74 0 139 5 145 9 11 15 61 28 226 5 58 13 112 18 120 5
8 10 32 11 54 6 157 14 269 18 273 3 3 5 19 5 37 0 17 9 50 20 73 11 22 20 50
20 61 0 11 4 22 9 26 5 3 15 22 22 43 6 20 19 46 29 57 20 23 50 83 50 100 0
7 11 25 24 40 14 16 23 32 20 36 -2 4 5 10 16 14 15 5 20 15 20 39 0 31 20 63
32 50 3 -3 9 11 12 31 4 19 10 35 14 35 8 0 32 49 32 66 0 6 11 22 24 36 14
13 28 37 32 53 4 17 16 43 28 60 11 16 22 43 22 58 1 15 8 36 16 45 8 9 20 31
28 47 8 17 20 36 27 43 7 7 15 29 19 50 4 20 10 39 13 42 3 3 16 37 29 75 23
67 36 102 51 135 4 8 16 43 27 77 10 35 22 63 27 63 4 0 7 12 7 27 0 28 11 68
41 147 11 27 19 61 19 76 0 15 6 40 14 55 8 16 12 42 9 64 -3 25 0 47 10 62 8
13 18 44 22 69 3 25 10 54 15 65 4 11 14 35 22 53 7 17 16 32 20 32 5 0 8 13
8 29 0 16 6 31 15 35 9 3 15 18 15 39 0 63 12 129 21 115 7 -11 11 -10 19 2 5
8 8 20 5 27 -2 7 0 15 5 18 6 3 6 15 0 30 -6 15 -6 27 0 30 6 4 10 1 10 -4 0
-6 4 -11 10 -11 5 0 8 17 7 38 -1 25 2 36 11 35 14 -3 15 2 4 42 -6 20 -4 38
5 55 7 14 13 19 13 11 0 -11 3 -11 15 -1 8 7 15 28 15 46 0 20 5 34 12 34 9 0
9 3 1 11 -8 8 -7 18 3 37 8 15 14 33 14 41 0 18 47 159 60 183 6 10 10 25 10
33 0 8 5 15 10 15 6 0 10 5 10 11 0 5 -4 7 -10 4 -16 -10 -12 7 5 19 13 9 52
161 72 275 4 25 8 30 15 20 7 -10 8 -6 5 14 -2 15 -1 27 3 27 4 0 5 11 2 25
-2 15 2 33 11 43 9 11 18 49 22 102 5 56 13 92 24 104 9 11 11 16 4 13 -13 -8
-5 75 9 84 5 3 6 13 2 23 -4 11 0 22 12 31 11 8 14 15 8 15 -14 0 -8 89 11
150 15 50 23 156 12 167 -12 11 -8 35 5 27 7 -4 8 -3 4 4 -4 6 -3 20 2 29 14
27 25 112 12 93 -7 -11 -9 -4 -6 25 1 22 6 47 9 55 9 23 19 127 21 208 1 52 5
72 14 72 15 0 6 42 -9 48 -5 2 -9 10 -9 18 0 7 6 11 14 8 12 -5 15 21 16 158
0 90 2 278 3 418 2 273 -6 424 -23 445 -6 7 -12 64 -13 126 -2 63 -6 119 -9
124 -7 12 -19 83 -23 134 -5 81 -27 206 -41 239 -8 20 -13 41 -10 47 2 7 -2
38 -9 70 -8 32 -12 62 -9 66 2 5 -1 23 -9 41 -7 18 -14 53 -16 78 -1 24 -6 49
-11 55 -5 6 -12 31 -16 55 -3 25 -12 67 -20 94 -8 27 -14 62 -14 78 0 17 -5
27 -12 25 -7 -1 -15 15 -18 39 -3 23 -13 52 -21 65 -8 13 -16 39 -17 58 -2 19
-7 40 -12 47 -6 6 -8 18 -5 26 3 7 -4 23 -15 35 -11 12 -20 33 -20 47 0 13 -6
31 -13 38 -8 7 -14 21 -14 30 0 8 -7 31 -15 49 -9 19 -22 50 -31 69 -45 105
-91 200 -96 200 -4 0 -15 20 -26 45 -11 25 -26 45 -34 45 -8 0 -12 3 -8 6 3 4
-1 20 -9 37 -17 33 -23 40 -70 92 -17 19 -39 52 -48 73 -22 48 -58 71 -81 52
-17 -14 -20 -40 -4 -40 6 0 9 7 5 15 -3 8 -1 15 4 15 6 0 10 -7 10 -15 0 -18
16 -20 23 -2 10 24 28 -17 23 -55 -3 -29 0 -37 15 -41 12 -3 17 -11 13 -20 -3
-8 -1 -18 5 -22 6 -3 8 -18 5 -33 -11 -43 -16 -46 -31 -18 -7 14 -20 26 -28
26 -20 0 -19 17 2 28 11 6 14 16 9 28 -6 16 -9 16 -17 4 -7 -12 -10 -11 -15 8
-4 13 -14 22 -25 22 -19 0 -21 3 -22 43 -1 27 -15 38 -42 32 -11 -3 -14 -2 -7
1 16 8 16 69 -1 83 -8 6 -17 8 -20 4 -4 -3 -7 -1 -7 6 0 7 -9 9 -24 5 -18 -4
-27 -1 -35 14 -9 17 -8 22 10 27 12 4 24 3 28 -3 3 -5 17 -12 31 -16 22 -6 23
-6 8 7 -10 8 -15 22 -12 34 3 11 0 24 -7 28 -7 5 -10 4 -5 -3 3 -6 1 -14 -5
-17 -6 -4 -13 2 -16 14 -3 12 -13 21 -24 21 -11 0 -20 7 -20 15 -3 28 -4 33
-10 40 -4 3 -10 -10 -13 -30 -6 -30 -11 -35 -34 -35 -15 0 -34 5 -42 10 -12 8
-11 10 8 10 13 0 22 6 22 15 0 8 9 20 19 27 10 6 17 17 14 24 -7 18 16 28 32
14 12 -10 15 -9 15 9 0 30 17 17 25 -19 4 -16 12 -28 18 -27 7 1 11 -4 9 -10
-1 -7 7 -13 17 -13 20 0 31 -18 31 -50 0 -11 9 -24 20 -30 11 -6 20 -18 20
-28 1 -15 2 -15 15 2 14 19 15 19 15 1 0 -10 3 -16 6 -12 11 11 -17 79 -31 73
-18 -6 -25 15 -25 74 0 64 -24 121 -48 114 -13 -5 -14 -4 -3 4 9 6 11 17 6 33
-7 21 -6 22 9 10 20 -17 34 -7 18 12 -7 8 -10 17 -7 21 3 3 -1 2 -7 -4 -7 -5
-20 -10 -30 -10 -10 0 -18 -5 -18 -12 0 -8 -7 -6 -17 5 -16 15 -16 19 -3 27 9
6 17 5 21 -2 9 -14 15 0 18 41 2 40 9 54 22 46 5 -4 14 6 19 20 8 20 7 30 -5
42 -20 19 -32 9 -15 -12 18 -21 6 -29 -19 -13 -13 8 -19 19 -15 30 3 10 -3 21
-15 28 -11 5 -19 16 -17 23 1 6 1 9 -1 5 -8 -14 -41 -8 -47 7 -3 8 0 15 6 15
7 0 9 15 5 45 -5 36 -4 43 8 39 10 -4 15 0 15 11 0 12 -6 16 -20 12 -12 -3
-20 0 -20 8 0 8 8 11 20 8 11 -3 20 0 20 6 0 6 -9 11 -20 11 -10 0 -24 9 -30
20 -11 21 -8 23 25 21 19 -1 19 -1 2 10 -26 15 -47 4 -47 -26 0 -23 -2 -24
-20 -13 -11 7 -20 18 -20 25 0 6 -6 18 -13 25 -8 7 -13 25 -11 38 1 14 3 29 3
33 1 5 6 5 11 2 6 -3 7 -18 3 -33 -6 -24 -4 -25 10 -14 13 11 16 10 20 -5 3
-13 5 -10 6 8 0 14 -3 29 -8 35 -14 13 -1 64 16 64 10 0 12 6 8 20 -6 20 -3
21 35 24 10 1 15 11 14 29 0 23 3 26 20 21 12 -4 26 -14 33 -23 8 -10 12 -12
13 -3 0 6 8 13 18 13 16 1 16 2 0 6 -10 2 -18 11 -18 20 0 12 7 14 35 9 27 -5
35 -4 35 8 0 8 -5 16 -12 18 -7 3 -5 7 6 11 15 6 17 2 15 -35 -4 -52 16 -62
24 -12 7 41 -2 53 -58 79 -27 13 -27 14 -7 15 17 0 22 6 23 28 1 16 3 20 6 10
10 -39 41 -13 45 37 2 26 7 39 16 37 10 -2 12 22 8 113 -3 76 -1 113 6 109 11
-7 9 381 -3 406 -22 47 -27 68 -25 98 1 17 3 59 4 92 2 46 6 60 17 60 13 0 15
38 14 292 -1 277 -2 295 -22 338 -29 61 -31 198 -4 228 11 12 16 25 13 31 -4
5 -7 133 -7 283 0 251 -7 343 -29 373 -4 6 -10 26 -13 45 -3 19 -8 43 -12 53
-5 11 -2 17 8 17 24 0 29 59 28 305 -3 383 -5 418 -18 423 -7 2 -13 10 -13 17
0 7 -3 15 -7 17 -5 2 -19 18 -32 37 -16 23 -20 36 -12 40 7 4 13 28 14 53 1
25 4 44 6 42 2 -2 11 9 19 24 16 30 18 144 3 277 -5 44 -8 91 -8 105 0 14 -4
80 -8 147 -7 106 -11 123 -26 128 -12 4 -20 20 -24 43 -3 20 -10 45 -16 54
-18 35 -8 108 15 108 18 0 20 22 17 185 -2 61 -7 157 -12 215 -5 58 -11 146
-15 195 -3 50 -12 103 -20 119 -7 16 -11 33 -7 39 3 5 2 7 -4 4 -11 -7 -32 28
-35 58 0 11 0 41 0 68 2 43 4 47 26 47 22 0 24 3 21 38 -2 20 -9 132 -15 247
-16 339 -23 388 -57 419 -25 24 -26 27 -20 110 4 46 12 97 17 111 6 16 8 75 4
148 -4 67 -7 158 -9 202 -5 209 -15 306 -35 328 -11 11 -25 33 -32 48 -7 15
-16 25 -21 22 -4 -3 -7 23 -6 56 1 34 5 61 8 61 3 0 15 19 26 42 22 46 24 87
12 333 -15 321 -18 347 -47 410 -22 48 -27 72 -24 120 1 33 3 61 3 63 1 1 1 5
2 10 0 4 7 15 16 24 13 15 15 41 9 180 -9 232 -16 346 -23 398 -3 25 -7 68 -8
95 -2 28 -10 72 -20 99 -18 52 -16 110 5 176 8 24 9 91 5 205 -4 94 -8 222
-10 285 -4 123 -18 241 -35 284 -13 36 -13 122 1 148 16 29 13 650 -3 695 -7
18 -15 33 -19 33 -9 0 -21 72 -21 134 -1 35 4 51 16 58 9 5 16 16 16 23 0 8 4
15 10 15 5 0 12 15 15 33 5 31 14 230 15 335 0 30 4 51 9 48 5 -4 11 -2 13 3
7 21 315 27 1073 22z m-2213 -11825 c9 -4 36 -9 60 -11 24 -1 45 -4 48 -5 6
-4 21 -7 35 -9 6 0 12 -13 13 -28 3 -32 10 -42 21 -25 4 7 15 10 24 6 10 -3
17 -1 17 5 0 8 4 8 14 -1 7 -7 11 -19 9 -25 -3 -8 3 -13 16 -13 12 0 21 -4 21
-9 0 -5 14 -22 30 -38 17 -15 30 -36 30 -45 0 -10 5 -15 13 -12 7 2 17 -9 24
-27 10 -24 17 -30 32 -26 17 4 21 -1 26 -42 3 -25 8 -56 11 -68 5 -27 -4 -30
-22 -5 -12 16 -13 15 -14 -8 0 -15 6 -32 13 -39 10 -11 10 -13 0 -7 -17 10
-40 -4 -24 -14 7 -3 9 -14 5 -23 -8 -21 -54 -23 -54 -2 0 8 5 15 10 15 6 0 9
3 9 8 -3 20 2 32 16 32 22 0 18 18 -4 25 -12 4 -28 27 -40 58 -18 48 -20 50
-22 22 -1 -16 -2 -38 -1 -47 1 -10 -3 -18 -8 -18 -6 0 -10 7 -10 15 0 8 -6 14
-12 13 -7 -2 -13 6 -13 17 0 15 -8 20 -35 22 -49 4 -63 11 -57 27 3 8 3 17 -1
21 -4 4 -7 11 -7 16 0 5 -4 9 -10 10 -15 1 -35 20 -30 29 3 4 -8 10 -24 13
-34 7 -91 64 -91 91 0 13 -5 17 -20 13 -13 -3 -20 0 -20 9 0 8 -4 14 -9 14 -5
0 -7 -9 -4 -20 3 -11 1 -20 -5 -20 -20 0 -42 32 -42 60 0 48 34 68 82 46z
m-84 -446 c6 0 12 -7 12 -15 0 -18 17 -20 22 -3 6 18 28 0 28 -23 0 -12 4 -17
11 -13 8 4 9 0 4 -15 -5 -15 -2 -21 9 -21 18 0 21 -15 6 -25 -5 -3 -10 -12 -9
-18 0 -9 2 -9 6 1 2 6 13 12 23 12 10 0 25 -6 32 -12 14 -14 42 -17 53 -6 10
10 60 -8 58 -21 -2 -6 2 -11 7 -11 6 0 10 5 10 10 0 6 5 10 10 10 15 0 12 -34
-5 -66 -20 -38 -20 -61 -1 -45 19 16 25 3 28 -58 2 -39 7 -52 20 -57 19 -6 25
-24 7 -24 -5 0 -7 -4 -4 -10 3 -5 1 -10 -6 -10 -7 0 -9 -3 -5 -7 4 -5 13 -8
19 -8 18 0 20 -33 3 -51 -16 -15 -19 -40 -17 -123 0 -25 -5 -51 -13 -60 -7 -9
-15 -22 -18 -30 -2 -8 -12 -15 -22 -17 -12 -2 -16 2 -12 13 4 9 -2 24 -13 35
-28 25 -32 23 -15 -12 9 -16 13 -34 9 -40 -4 -6 4 -10 19 -10 14 0 28 -5 31
-11 4 -6 1 -9 -8 -7 -14 3 -67 -62 -67 -82 0 -5 -17 -10 -37 -12 -33 -3 -38
-7 -41 -30 -4 -32 -9 -33 -36 -13 -11 8 -27 15 -35 15 -9 -1 -1 -7 16 -15 28
-12 32 -19 30 -42 -5 -43 -16 -55 -47 -51 -24 4 -30 -1 -45 -34 -18 -41 -35
-50 -35 -18 0 11 -4 20 -10 20 -5 0 -10 -6 -10 -13 0 -7 -14 -23 -30 -35 -24
-18 -34 -20 -49 -12 -30 15 -33 12 -15 -15 9 -14 15 -27 13 -29 -8 -8 -54 -18
-47 -11 11 12 -11 45 -26 39 -16 -6 -26 24 -16 51 5 15 -2 26 -34 49 -23 16
-43 30 -44 32 -2 1 -1 15 2 31 7 32 51 57 82 47 14 -4 13 -1 -6 15 -28 23 -40
26 -40 11 0 -5 -13 -10 -30 -10 -16 0 -30 5 -30 11 0 6 8 8 19 4 14 -4 23 0
31 14 10 19 9 20 -15 11 -32 -12 -35 -12 -35 -1 0 5 9 12 19 16 11 3 23 16 27
28 8 26 6 33 -9 29 -7 -2 -9 0 -5 4 4 4 3 13 -3 21 -9 10 -6 13 12 13 22 1 23
2 7 14 -10 7 -15 16 -12 19 3 3 -7 14 -23 23 -29 19 -43 34 -43 47 0 4 10 -1
22 -13 24 -22 78 -27 78 -7 0 7 -6 22 -14 32 -8 11 -10 23 -5 29 5 6 19 22 30
36 12 15 18 33 15 46 -4 14 1 28 14 39 21 19 28 41 9 30 -6 -4 -16 0 -22 10
-10 13 -18 14 -41 5 -32 -12 -59 2 -49 26 6 17 50 19 56 2 3 -10 8 -10 21 1
17 14 16 16 -6 34 -13 10 -17 16 -11 12 7 -3 28 10 47 30 19 19 40 35 46 35 9
0 9 4 0 15 -12 14 -8 15 36 10 27 -3 63 -1 79 4 29 9 29 9 5 11 -14 1 -31 2
-38 1 -9 -2 -12 4 -8 17 5 15 1 21 -15 25 -19 5 -20 8 -10 21 11 13 10 17 -4
22 -17 7 -17 8 0 20 10 7 14 18 10 25 -6 8 -1 11 17 7 23 -4 25 -2 22 29 -2
34 9 45 20 17 3 -9 6 -29 6 -45 0 -16 5 -29 10 -29 18 0 2 74 -20 92 -26 21
-26 32 3 24 12 -3 28 -6 35 -6z"/>
<path d="M30674 24263 c-5 -17 -3 -28 4 -31 16 -5 15 -20 -2 -37 -17 -18 -37
-153 -39 -272 -1 -50 -4 -90 -7 -88 -3 2 -6 -20 -8 -48 -3 -77 -13 -127 -23
-127 -5 0 -8 -15 -8 -32 3 -61 -11 -229 -20 -247 -9 -16 -24 -195 -25 -301 -1
-25 -5 -48 -11 -52 -5 -4 -11 -50 -11 -103 -1 -52 -6 -101 -12 -108 -6 -7 -9
-42 -8 -77 2 -36 0 -69 -3 -75 -3 -5 -7 -21 -8 -35 -13 -130 -22 -199 -28
-218 -4 -13 -2 -28 5 -37 10 -12 10 -15 0 -15 -9 0 -11 -12 -7 -39 4 -30 1
-41 -10 -46 -13 -4 -14 -18 -9 -75 4 -39 4 -70 -1 -70 -9 0 -11 -22 -15 -135
-1 -41 -5 -75 -8 -75 -4 0 -7 -15 -7 -32 -1 -18 -6 -84 -13 -147 -8 -81 -8
-117 -1 -124 16 -16 13 -30 -3 -24 -11 5 -16 -8 -20 -56 -3 -34 -10 -120 -17
-191 -9 -100 -8 -130 1 -136 9 -5 9 -9 1 -14 -18 -12 -13 -36 6 -29 15 6 16 5
3 -9 -8 -9 -19 -15 -24 -15 -6 1 -12 -7 -14 -18 -4 -17 -3 -18 14 -5 11 8 16
11 12 6 -12 -14 11 -46 32 -46 10 0 20 5 22 10 2 6 15 7 33 2 17 -5 44 -5 60
-2 17 4 37 3 45 -1 24 -11 143 -17 162 -7 10 5 19 4 23 -2 3 -5 12 -10 18 -10
7 0 6 4 -3 11 -12 8 -8 10 17 6 18 -2 35 1 37 7 3 6 10 3 17 -8 8 -13 13 -15
19 -6 5 8 13 9 26 3 27 -14 100 -16 122 -4 11 6 23 6 28 1 10 -9 171 -16 194
-7 40 14 48 15 59 4 7 -7 80 -12 214 -14 111 -1 247 -3 302 -4 55 0 106 -6
113 -12 8 -6 16 -7 20 -1 4 5 66 10 137 11 83 2 123 -1 110 -7 -18 -8 -17 -9
8 -9 16 -1 26 3 22 9 -3 6 -1 10 4 10 6 0 11 -4 11 -9 0 -6 40 -9 93 -7 50 1
106 -1 124 -5 17 -4 57 -1 87 6 34 8 56 9 56 4 0 -6 41 -10 98 -9 166 2 230
-1 202 -9 -20 -5 -22 -8 -9 -13 9 -4 20 -3 25 2 12 11 224 19 224 9 0 -5 29
-9 65 -9 41 0 65 4 65 11 0 8 4 8 13 0 16 -13 135 -13 143 0 3 5 9 7 14 4 5
-3 8 17 8 44 -1 28 3 56 9 63 6 7 14 51 18 98 12 140 18 184 28 210 3 8 8 53
11 100 3 47 14 137 25 200 11 63 25 162 31 220 6 58 15 118 20 134 7 20 6 34
-1 43 -7 8 -8 13 -1 13 5 0 13 30 16 68 4 37 12 81 17 98 11 35 18 80 23 140
2 23 9 57 15 76 6 18 15 81 20 138 6 58 19 168 31 245 11 77 25 181 30 230 11
102 27 209 42 275 5 25 13 70 18 100 20 133 50 312 67 395 9 50 17 118 18 151
0 50 3 61 15 57 9 -3 8 0 -3 7 -12 7 -16 18 -12 31 7 21 -4 47 -14 32 -4 -6
-39 -6 -91 -1 -47 4 -115 5 -151 2 -37 -3 -69 -2 -72 3 -3 4 -67 7 -144 7 -76
-1 -142 1 -148 4 -5 3 -70 7 -145 8 -74 2 -227 6 -340 9 -648 21 -686 22 -995
30 -408 10 -461 12 -782 18 l-293 6 -6 -26z m556 -402 c0 -5 14 -14 31 -20 42
-14 58 -38 59 -82 0 -34 -3 -37 -32 -42 -36 -5 -92 18 -83 33 4 6 -13 10 -39
10 -51 0 -50 1 -34 -35 8 -18 19 -25 40 -25 15 0 28 -4 28 -10 0 -5 11 -10 24
-10 14 0 28 -5 31 -11 4 -5 17 -14 30 -19 29 -11 40 -81 19 -122 -25 -49 -75
-97 -109 -107 -47 -13 -148 -4 -158 14 -4 8 -15 15 -22 15 -8 0 -15 5 -15 11
0 6 -7 17 -15 25 -20 20 -20 73 0 80 8 4 35 3 60 0 32 -5 45 -12 45 -24 0 -13
2 -13 15 4 14 18 14 18 15 -8 0 -34 26 -38 58 -9 24 20 28 31 11 31 -6 0 -17
7 -25 15 -9 8 -31 15 -50 15 -19 0 -34 5 -34 11 0 5 -13 15 -29 20 -38 13 -65
68 -56 112 9 40 46 97 63 97 8 0 28 7 45 15 18 8 50 16 72 18 22 2 43 4 48 5
4 1 7 -2 7 -7z m706 -46 c-3 -8 0 -15 6 -17 11 -4 34 -106 45 -203 3 -27 9
-54 13 -60 4 -5 10 -28 13 -51 9 -54 -8 -76 -59 -78 -34 -1 -39 2 -42 23 -7
47 -35 59 -129 53 -13 -1 -23 -6 -23 -12 0 -21 -44 -52 -81 -57 -32 -5 -39 -3
-39 11 0 25 24 96 32 96 5 0 8 9 8 21 0 11 11 35 24 52 13 18 28 47 35 66 21
64 66 150 81 157 8 3 33 8 55 11 22 2 42 6 44 8 8 9 22 -8 17 -20z m634 -11
c63 -5 80 -10 80 -23 0 -8 12 -25 27 -37 26 -21 28 -26 28 -105 0 -76 -3 -88
-30 -130 -62 -96 -119 -121 -259 -114 -56 3 -82 9 -88 19 -4 8 -3 45 3 83 6
37 12 79 14 93 2 14 7 57 11 95 11 111 34 139 107 129 15 -2 63 -7 107 -10z
m565 -24 c3 -5 11 -10 16 -10 6 0 7 5 4 10 -3 6 3 10 15 10 19 0 21 -5 20 -57
-1 -32 -8 -78 -15 -103 -36 -125 -24 -174 42 -169 21 1 43 5 48 8 6 3 20 7 33
9 20 2 22 -1 22 -41 0 -59 -16 -71 -88 -67 -31 2 -75 2 -97 1 -22 -1 -54 1
-71 4 l-30 5 3 63 c3 34 8 71 14 82 5 11 15 70 23 132 8 62 17 117 21 123 8
13 32 13 40 0z m-2072 -916 c12 3 45 3 73 0 l51 -6 -7 -32 c-16 -66 -16 -66
-95 -66 -64 0 -73 -2 -78 -20 -3 -11 -1 -18 4 -14 5 3 9 0 9 -6 0 -8 19 -10
59 -7 82 6 89 0 70 -60 -11 -35 -20 -48 -35 -49 -10 -1 -44 -2 -74 -3 -30 -2
-49 -5 -42 -8 6 -2 12 -9 12 -15 0 -6 -7 -8 -15 -4 -8 3 -15 1 -15 -4 0 -6 7
-10 15 -10 8 0 15 -6 15 -12 0 -9 3 -9 9 1 7 11 13 12 23 3 7 -6 36 -12 63
-14 48 -3 50 -4 53 -35 2 -19 -1 -33 -7 -33 -6 0 -11 -7 -11 -15 0 -13 -20
-15 -135 -12 -74 1 -137 6 -141 10 -11 10 -5 110 7 122 5 5 9 49 9 97 0 54 4
88 10 88 6 0 10 15 8 34 -2 40 23 70 51 61 12 -3 21 0 24 9 5 12 12 13 37 5
17 -6 41 -9 53 -5z m636 -17 c14 9 28 10 45 4 13 -6 34 -7 46 -4 15 4 23 0 26
-14 3 -10 19 -25 36 -32 30 -14 31 -14 25 -76 -4 -37 -15 -77 -28 -99 -19 -32
-20 -42 -11 -79 6 -23 13 -59 16 -79 l5 -38 -48 0 c-53 0 -71 12 -71 50 0 43
-12 74 -21 58 -7 -10 -9 -9 -9 5 0 13 -7 17 -30 15 -32 -2 -34 -5 -44 -82 -3
-21 -7 -41 -10 -43 -3 -3 -24 -2 -47 2 l-42 7 7 82 c4 44 9 92 11 106 2 14 7
59 10 100 9 90 24 119 58 113 14 -3 28 1 32 7 6 9 10 9 16 -1 7 -11 12 -12 28
-2z m766 -20 c62 -16 95 -43 95 -78 0 -31 -16 -47 -58 -55 -24 -5 -32 -2 -41
14 -9 17 -80 49 -87 39 0 -1 -4 -17 -7 -34 -6 -32 -6 -33 29 -33 19 0 42 -7
50 -15 9 -8 24 -15 35 -15 10 0 19 -4 19 -9 0 -5 9 -11 19 -14 30 -8 43 -68
25 -121 -24 -70 -94 -107 -190 -102 -65 4 -94 14 -94 31 0 8 -7 18 -15 22 -8
5 -17 22 -21 38 -5 26 -1 33 24 48 39 22 59 22 72 -3 6 -10 28 -25 50 -31 37
-11 41 -10 60 11 28 32 9 50 -57 54 -65 5 -98 27 -116 79 -21 61 -16 89 21
131 48 55 97 66 187 43z m454 -29 c7 -12 16 -56 18 -97 3 -41 9 -84 15 -95 9
-17 11 -18 20 -3 5 10 6 22 2 28 -3 6 -1 14 5 18 6 4 18 34 27 67 19 73 31 86
85 88 l44 1 7 -45 c3 -25 7 -71 7 -102 1 -87 25 -76 60 29 12 34 21 69 21 77
0 13 49 56 64 56 3 0 16 -11 30 -24 26 -24 34 -46 16 -46 -5 0 -12 -12 -16
-27 -3 -16 -9 -37 -14 -48 -5 -11 -16 -38 -25 -60 -9 -22 -23 -53 -31 -68 -8
-16 -14 -35 -14 -42 0 -7 -3 -15 -7 -17 -5 -1 -18 -24 -30 -50 -22 -45 -25
-48 -62 -48 -22 0 -43 5 -46 11 -7 10 -23 111 -28 168 -2 27 -27 42 -27 17 0
-9 -4 -16 -10 -16 -5 0 -10 -11 -10 -24 0 -13 -7 -37 -15 -53 -8 -15 -22 -45
-31 -66 -16 -36 -18 -37 -53 -31 -49 9 -47 6 -59 71 -31 164 -38 310 -15 335
22 24 55 23 72 -4z m-1999 -926 c0 -5 26 -9 58 -9 94 -1 92 -1 92 -31 0 -15
-7 -38 -16 -50 -14 -20 -23 -22 -80 -21 -38 1 -70 -3 -77 -10 -6 -6 -9 -11 -6
-12 2 0 19 -2 37 -4 18 -1 41 -10 52 -20 10 -9 29 -15 42 -13 18 2 24 -2 26
-21 2 -13 -2 -34 -9 -47 -10 -20 -21 -24 -73 -26 -48 -2 -61 -7 -64 -20 -3
-15 5 -18 45 -18 98 -1 106 -4 108 -36 2 -27 -14 -83 -25 -85 -3 -1 -64 -2
-137 -3 l-131 -1 -4 33 c-2 19 -1 66 4 105 30 277 32 282 92 290 58 7 66 7 66
-1z m667 -143 c-1 -54 -6 -99 -11 -99 -6 0 -5 -5 2 -12 7 -7 12 -24 12 -39 0
-27 19 -42 43 -34 6 3 30 -1 52 -9 33 -12 41 -19 43 -43 5 -47 -15 -55 -143
-58 -87 -2 -117 1 -126 11 -13 15 -7 99 17 259 17 107 30 146 48 139 6 -2 20
2 31 10 18 13 21 12 27 -6 5 -11 7 -64 5 -119z m644 111 c18 -10 19 -20 17
-115 -2 -58 -6 -105 -9 -105 -13 0 -17 -54 -5 -64 24 -23 63 -35 75 -23 9 9
14 9 19 0 4 -6 18 -13 32 -14 21 -4 25 -9 26 -42 1 -33 -3 -40 -25 -48 -42
-16 -205 -8 -231 11 l-22 17 16 164 c9 90 16 170 16 177 0 6 7 12 16 12 11 0
14 5 10 16 -4 12 -1 14 14 9 11 -4 20 -2 20 4 0 14 6 14 31 1z m807 -31 c18
-7 28 -7 30 0 2 6 7 11 12 11 8 0 26 -108 19 -115 -2 -2 -25 -6 -51 -10 -40
-6 -48 -5 -48 8 0 20 -12 23 -61 19 -28 -3 -39 -9 -39 -21 0 -10 3 -12 8 -5 5
8 22 5 57 -12 28 -14 60 -25 73 -26 13 -2 22 -9 22 -19 0 -10 5 -19 11 -21 5
-2 14 -20 18 -41 5 -21 5 -35 0 -31 -5 3 -9 -12 -9 -34 0 -73 -95 -128 -192
-112 -87 14 -117 33 -118 73 0 9 -5 17 -11 17 -13 0 -1 42 15 52 18 12 61 9
81 -6 10 -7 27 -11 38 -8 16 4 18 1 12 -17 -5 -15 -2 -21 9 -21 9 0 16 9 16
20 0 11 5 20 11 20 6 0 9 -7 5 -15 -3 -8 -1 -15 3 -15 11 0 23 29 16 40 -3 5
-31 14 -63 20 -58 12 -108 42 -98 59 4 5 -1 14 -10 19 -21 12 -14 84 10 111 9
10 16 25 16 35 0 9 4 15 9 12 5 -3 14 0 20 8 7 8 28 14 48 13 21 -1 38 4 41
11 3 10 7 10 18 1 12 -10 18 -9 32 5 15 15 17 15 20 1 2 -9 16 -21 30 -26z"/>
<path d="M32473 23704 c-7 -3 -13 -23 -13 -43 0 -21 -5 -63 -11 -94 -14 -70
-8 -90 23 -78 13 5 35 12 50 15 15 4 34 16 42 29 19 30 28 143 12 156 -15 12
-86 22 -103 15z"/>
<path d="M8764 20571 c-3 -3 -15 -6 -27 -6 -20 0 -21 -4 -18 -100 1 -55 6
-149 11 -210 6 -60 10 -150 10 -200 0 -61 5 -99 15 -119 9 -16 13 -36 10 -45
-11 -36 -14 -93 -5 -114 8 -20 9 -19 9 9 1 32 23 42 49 21 15 -11 14 -22 12
167 -1 149 -8 186 -34 186 -23 0 -35 24 -42 79 -6 53 -6 53 17 45 13 -5 49 -8
79 -7 33 1 58 -3 62 -10 6 -9 13 -9 28 1 12 7 30 10 41 7 13 -4 27 0 38 9 17
16 19 15 23 -2 5 -16 13 -19 49 -16 56 5 89 -2 89 -21 0 -11 11 -15 36 -15 28
0 35 -3 30 -15 -3 -9 1 -15 11 -15 8 0 32 -17 51 -37 35 -38 36 -39 33 -118
-1 -57 -6 -83 -16 -91 -8 -6 -15 -14 -15 -18 0 -4 -18 -25 -41 -46 -28 -25
-37 -40 -29 -45 9 -6 9 -10 -1 -16 -10 -6 -7 -8 10 -7 17 2 28 -4 37 -20 9
-19 13 -20 17 -8 8 19 97 22 130 5 16 -9 22 -9 25 0 3 9 8 9 20 -1 12 -10 16
-10 19 0 3 6 11 12 19 12 17 0 18 12 2 29 -11 10 -9 12 6 9 13 -2 24 5 31 18
24 48 38 56 78 51 34 -5 38 -3 34 13 -5 18 1 19 62 15 71 -4 151 4 151 14 0 4
-6 16 -14 27 -12 16 -27 19 -88 19 -52 0 -76 -4 -84 -14 -11 -14 -90 -18 -102
-6 -3 2 -8 22 -12 45 -8 45 0 57 42 55 18 -1 28 5 32 18 3 11 12 18 23 16 10
-1 30 1 46 6 17 4 32 3 41 -4 8 -7 31 -9 60 -5 31 5 46 3 46 -5 0 -6 6 -11 14
-11 7 0 19 -6 25 -14 7 -8 22 -11 38 -8 22 4 25 2 20 -12 -4 -10 -1 -19 8 -22
8 -4 15 -15 15 -25 0 -11 7 -22 15 -25 8 -4 15 -17 15 -31 0 -20 4 -24 19 -20
26 6 46 -45 30 -75 -6 -11 -9 -29 -6 -39 3 -10 1 -22 -4 -25 -5 -3 -9 -13 -9
-22 1 -15 2 -15 13 -1 8 10 29 16 62 16 132 1 122 -3 128 56 3 28 2 72 -1 97
-6 37 -11 46 -30 48 -25 4 -42 36 -42 81 l0 28 103 6 c124 8 216 0 239 -20 14
-13 21 -13 32 -4 8 7 48 15 88 18 72 5 75 5 91 -21 10 -14 24 -26 31 -26 32 0
57 -65 63 -169 l6 -101 35 -6 c19 -4 53 -7 74 -8 37 -1 38 0 40 34 1 19 1 46
1 60 -1 14 -2 91 -4 171 l-2 147 -34 16 c-32 15 -34 19 -31 58 3 39 5 43 38
50 43 9 127 -10 135 -30 3 -9 8 -64 12 -124 3 -60 10 -111 15 -114 4 -3 8 1 8
9 0 8 12 23 27 32 22 15 32 16 55 7 22 -8 31 -7 43 4 9 9 20 12 27 7 7 -4 21
-6 32 -4 10 1 15 -2 12 -7 -3 -5 14 -13 40 -17 25 -3 54 -15 65 -26 10 -10 26
-19 35 -19 10 0 14 -6 11 -14 -3 -8 2 -16 13 -19 22 -6 80 -123 81 -163 1 -45
11 -59 47 -60 l32 -2 0 64 c0 47 4 68 18 81 10 10 29 41 42 70 15 31 30 51 38
48 6 -2 12 2 12 10 0 9 6 12 16 8 8 -3 25 4 37 15 19 18 34 21 107 20 90 -1
180 -28 180 -55 0 -7 4 -13 10 -13 5 0 29 -19 53 -42 46 -44 70 -97 67 -145
-4 -63 -1 -73 25 -73 14 0 25 -4 25 -10 0 -5 5 -10 11 -10 5 0 8 4 5 9 -3 5 1
11 8 14 8 3 16 1 18 -5 3 -8 13 -8 35 -1 18 7 36 7 44 2 8 -5 22 -9 32 -9 14
0 17 10 17 68 0 37 -3 84 -6 105 -6 32 -10 37 -35 37 -15 0 -35 7 -43 16 -17
16 -21 70 -8 91 9 15 157 16 184 2 10 -5 24 -31 32 -57 9 -28 15 -38 15 -24 1
15 10 26 27 32 14 6 28 19 31 30 3 11 13 21 22 21 40 4 107 -4 112 -13 4 -5
13 -3 22 7 11 10 30 15 56 13 38 -3 39 -4 52 -56 10 -43 10 -57 -1 -77 -11
-21 -20 -25 -62 -25 -34 0 -48 4 -48 14 0 15 -60 31 -69 18 -3 -4 -27 -16 -54
-26 -26 -10 -52 -26 -57 -36 -6 -10 -19 -21 -29 -25 -16 -5 -18 -12 -14 -48 7
-49 21 -63 40 -39 13 15 13 14 7 -7 -5 -21 -3 -23 14 -19 12 3 22 2 24 -4 2
-5 19 -6 43 0 24 5 54 5 75 -1 43 -11 181 -2 190 13 4 6 14 8 23 4 9 -3 14
-10 11 -15 -7 -11 -4 -11 73 2 l63 11 0 83 0 83 -31 11 c-18 6 -42 11 -55 11
-27 0 -41 22 -50 78 -7 44 -1 49 66 51 68 2 62 -8 64 98 0 29 6 56 11 61 6 5
28 7 50 5 49 -6 65 -32 65 -109 0 -31 5 -56 13 -61 6 -4 68 -8 137 -8 l125 0
3 -44 c2 -24 0 -51 -4 -60 -4 -9 -7 -18 -6 -21 0 -4 -9 -6 -60 -10 -7 -1 -55
2 -105 6 -95 7 -101 5 -93 -31 1 -5 1 -34 1 -65 0 -30 2 -63 5 -72 7 -23 33
-22 64 2 32 25 40 25 40 1 0 -25 7 -27 80 -23 42 3 60 8 60 17 0 8 14 24 31
36 29 20 30 23 15 35 -22 15 -18 69 4 69 9 0 16 11 18 28 2 16 -2 27 -8 27
-15 0 -5 47 14 66 9 8 13 36 12 83 -1 39 1 71 5 71 3 0 4 11 1 25 -2 14 -8 25
-13 25 -5 0 -9 14 -9 31 0 17 -5 39 -10 50 -9 16 -7 19 10 19 14 0 20 6 18 16
-2 10 3 19 10 21 8 3 12 -7 12 -31 0 -19 5 -38 10 -41 6 -4 10 27 10 85 0 62
-3 89 -11 85 -6 -4 -8 -13 -5 -20 7 -20 -3 -25 -31 -14 -17 6 -22 6 -17 -2 4
-8 0 -8 -15 0 -11 7 -21 21 -21 31 0 11 -3 20 -7 21 -5 0 -34 2 -65 5 -31 2
-67 0 -80 -5 -16 -6 -27 -5 -35 5 -10 10 -59 13 -214 13 -110 0 -203 3 -207 5
-5 3 -95 5 -202 5 -107 1 -202 2 -210 2 -8 1 -105 3 -215 5 -110 1 -285 5
-390 9 -155 5 -309 9 -625 16 -8 0 -77 0 -154 0 -76 0 -143 2 -147 5 -5 3
-219 7 -475 9 -256 3 -469 7 -474 10 -5 3 -11 1 -14 -3 -3 -5 -31 -5 -63 -1
-32 5 -143 8 -248 9 -104 1 -360 2 -568 4 -207 1 -380 0 -383 -3z"/>
<path d="M9018 20153 c-66 -5 -70 -11 -62 -112 6 -77 9 -84 41 -78 14 3 40 1
57 -3 87 -22 88 -22 81 0 -3 11 -2 20 3 20 20 0 72 55 72 75 -1 24 -22 55 -39
55 -6 0 -11 5 -11 11 0 19 -33 39 -60 37 -14 -1 -50 -3 -82 -5z"/>
<path d="M10608 19973 c-9 -10 -18 -34 -21 -53 -8 -44 5 -137 18 -130 6 3 9
11 9 18 -2 16 11 15 26 -3 7 -8 18 -15 25 -15 8 0 16 -6 18 -12 3 -8 6 -5 6 5
1 10 5 16 10 13 10 -6 8 37 -3 72 -4 12 -15 22 -24 22 -13 0 -12 3 6 16 15 11
22 25 22 50 0 33 -1 34 -38 34 -25 0 -45 -7 -54 -17z"/>
<path d="M11250 19980 c-25 -3 -57 -13 -72 -23 -15 -10 -32 -16 -38 -12 -6 4
-10 -6 -10 -24 0 -17 -4 -31 -9 -31 -11 0 -18 -49 -11 -79 6 -26 15 -29 115
-35 33 -2 77 -7 98 -11 26 -5 37 -4 37 4 0 7 4 10 9 6 5 -3 13 0 16 5 5 8 13
6 26 -6 18 -17 19 -15 19 40 0 55 -2 59 -50 111 -56 59 -65 62 -130 55z"/>
<path d="M11870 19960 c0 -5 -9 -10 -20 -10 -11 0 -20 -4 -20 -10 0 -5 -7 -10
-16 -10 -11 0 -14 -5 -10 -16 3 -9 6 -20 6 -25 0 -7 47 -9 123 -8 68 1 128 -1
135 -4 6 -4 13 -3 17 2 7 13 -25 51 -44 51 -8 0 -11 3 -8 7 4 3 2 12 -4 20
-14 16 -159 19 -159 3z"/>
<path d="M8970 19708 c0 -18 19 -23 65 -18 11 1 17 -2 12 -6 -4 -4 2 -17 12
-28 15 -17 18 -28 12 -56 l-7 -35 -103 -2 c-57 -1 -107 -5 -110 -10 -3 -4 -21
-13 -38 -20 -37 -13 -35 -18 -33 75 1 38 -3 62 -9 62 -7 0 -11 -34 -11 -94 0
-90 1 -95 23 -98 15 -2 21 -9 19 -20 -4 -26 40 -24 56 2 7 12 23 20 38 20 22
0 25 -2 14 -15 -10 -13 -9 -15 8 -15 12 0 24 -5 27 -10 4 -6 10 -8 15 -5 5 3
48 6 95 6 47 0 85 4 85 9 0 4 16 8 35 7 19 -1 35 -4 35 -7 0 -4 23 -8 52 -9
28 -1 56 -5 62 -10 6 -5 27 -9 46 -9 21 -1 29 2 21 7 -8 5 8 10 41 14 29 2 59
0 66 -5 8 -7 12 -7 12 2 0 10 20 11 88 6 48 -4 100 -7 117 -7 16 0 33 -5 37
-12 5 -8 8 -9 8 0 0 8 30 10 108 5 59 -3 123 -5 142 -4 19 0 73 0 120 0 221
-1 408 2 439 8 24 5 32 3 27 -5 -9 -13 4 -14 192 -12 82 0 142 -3 142 -8 0 -6
15 -8 33 -6 40 5 227 17 247 16 148 -9 564 -16 645 -11 56 3 264 -8 274 -15 7
-4 47 -4 89 1 106 11 104 11 130 2 24 -8 212 -10 327 -4 39 3 99 0 133 -7 47
-8 68 -8 82 0 11 8 21 8 27 2 7 -7 22 -6 44 4 21 8 44 11 61 6 16 -4 30 -4 33
1 2 4 23 4 45 0 22 -4 43 -3 46 1 3 5 10 7 15 3 5 -3 7 -10 3 -15 -6 -10 39
-2 65 11 7 4 30 4 50 -1 49 -11 73 -11 66 1 -10 16 21 12 35 -5 14 -17 50 -20
50 -5 0 6 5 10 11 10 5 0 7 -4 4 -10 -4 -6 5 -10 21 -10 22 0 25 2 14 15 -10
13 -9 15 8 15 27 0 38 17 15 23 -14 4 -13 5 4 6 12 0 23 -5 26 -11 2 -7 4 12
3 42 -1 44 -4 55 -19 58 -10 2 -26 -6 -36 -17 -10 -12 -23 -21 -29 -21 -6 0
-16 -8 -21 -17 -10 -17 -12 -17 -25 0 -10 13 -31 18 -95 19 -81 2 -107 12 -80
29 9 6 3 8 -18 5 -29 -3 -33 -1 -33 22 0 14 -12 44 -27 68 l-28 44 -95 2 c-52
1 -142 3 -200 5 -115 4 -228 5 -247 4 -7 -1 -13 -13 -12 -28 0 -19 3 -23 7
-13 5 11 25 15 74 16 39 0 65 -3 61 -9 -3 -5 5 -7 18 -3 13 3 18 3 12 0 -24
-11 -13 -24 15 -18 22 4 29 0 39 -21 12 -27 8 -55 -8 -55 -5 0 -9 -8 -9 -19 0
-17 -9 -18 -117 -15 -65 1 -169 3 -230 3 -94 1 -113 4 -113 16 0 8 -3 15 -7
15 -5 0 -8 16 -8 37 0 32 4 38 30 46 17 6 33 14 36 20 5 6 18 6 38 -1 25 -9
31 -8 31 4 0 25 -3 25 -111 30 l-106 3 -6 -33 c-7 -42 -60 -119 -73 -106 -11
11 -54 2 -54 -11 0 -4 -50 -8 -110 -8 -61 0 -114 -2 -119 -5 -4 -3 -18 8 -30
25 -16 22 -26 27 -35 20 -17 -14 -96 62 -111 108 -6 19 -14 21 -74 21 -66 0
-69 -1 -95 -34 -14 -19 -26 -38 -26 -43 0 -17 -75 -73 -104 -78 -35 -6 -133
-10 -188 -7 -31 2 -35 5 -31 22 6 22 -14 25 -30 5 -5 -5 -6 0 -2 12 3 12 1 24
-4 27 -5 4 -12 -7 -16 -24 -4 -16 -12 -31 -18 -31 -7 -1 -48 -3 -92 -5 l-80
-3 0 59 c0 32 2 58 5 57 10 -3 59 40 53 47 -3 3 -35 6 -70 6 -70 0 -72 -3 -54
-82 11 -47 -5 -83 -37 -81 -12 0 -37 1 -54 2 -27 1 -36 8 -49 34 -9 19 -14 46
-11 65 6 44 -12 62 -63 62 -40 0 -42 -2 -37 -25 2 -14 9 -25 14 -25 25 0 42
-36 39 -82 -2 -28 -79 -41 -173 -29 -5 1 -8 7 -8 15 0 8 -6 16 -13 19 -8 3
-12 21 -11 54 3 53 -14 75 -52 68 -20 -3 -20 -20 -2 -43 6 -7 11 -32 12 -57 1
-50 0 -51 -82 -46 -24 2 -49 -2 -56 -8 -9 -7 -22 -7 -44 1 -24 9 -33 21 -41
51 -12 48 -3 71 27 74 13 2 21 -1 17 -7 -3 -6 1 -10 9 -10 21 0 21 46 0 54 -9
3 -36 6 -60 6 -25 0 -54 5 -64 10 -13 7 -21 7 -25 -1 -4 -6 -17 -14 -29 -19
-21 -8 -21 -8 -1 -16 33 -13 63 -47 69 -80 9 -41 -6 -52 -74 -54 -52 -2 -69 1
-115 20 -47 20 -62 20 -88 0 -23 -18 -39 -21 -128 -19 -85 1 -106 5 -123 20
-11 11 -25 19 -32 19 -7 0 -15 9 -19 19 -3 11 -12 22 -20 25 -8 3 -12 12 -9
20 3 8 1 17 -5 21 -6 3 -11 15 -11 26 0 17 -7 19 -74 19 -50 0 -77 -4 -85 -14
-9 -10 -8 -15 4 -20 8 -3 21 -3 29 0 20 8 65 -37 72 -72 8 -41 -7 -47 -133
-57 -30 -2 -43 1 -43 9 0 8 -8 18 -19 23 -10 6 -21 24 -24 41 -10 49 -47 81
-101 86 -33 3 -46 1 -46 -8 0 -9 -2 -10 -8 -2 -4 7 -31 13 -60 15 -44 3 -52 1
-52 -13z"/>
<path d="M13670 16274 c1 -15 26 -44 39 -44 8 0 11 -41 10 -136 -1 -137 0
-142 36 -158 6 -3 3 -9 -5 -15 -11 -8 -16 -7 -18 4 -5 24 -22 17 -22 -9 0 -33
-32 -40 -56 -12 -10 11 -18 23 -18 26 0 3 -12 15 -27 27 -17 15 -33 20 -49 16
-15 -4 -21 -2 -16 5 7 11 -163 10 -196 -2 -10 -3 -25 -8 -34 -11 -13 -4 -14
-8 -4 -20 11 -13 5 -15 -44 -15 -69 0 -75 -17 -7 -22 69 -4 82 0 79 25 -2 13
2 21 9 20 6 -2 51 -5 100 -7 74 -4 90 -7 105 -26 9 -11 23 -20 30 -19 31 4 44
-3 66 -36 12 -19 22 -41 22 -48 0 -8 12 -31 26 -52 23 -34 25 -45 19 -92 -5
-44 -4 -54 10 -59 11 -5 13 -9 6 -14 -6 -3 -14 -26 -16 -51 -3 -24 -7 -53 -9
-64 -2 -11 -4 -24 -5 -29 0 -4 -10 -6 -21 -3 -17 4 -20 0 -20 -29 0 -27 4 -34
20 -34 15 0 21 -9 26 -39 3 -21 9 -43 13 -50 10 -16 101 -27 101 -12 0 7 -9 9
-25 5 -19 -5 -25 -2 -25 10 0 19 -1 19 52 2 24 -8 54 -13 68 -11 14 1 33 3 43
4 9 0 17 6 17 12 0 6 -17 9 -42 8 -26 -2 -43 1 -46 9 -2 6 2 12 9 12 8 0 7 4
-4 13 -14 10 -17 43 -21 222 -3 116 -5 305 -6 420 0 141 -4 205 -10 193 -6 -9
-12 -38 -15 -65 -8 -91 -18 -148 -22 -135 -3 6 -10 9 -15 6 -7 -5 -8 -2 -4 5
5 8 0 14 -13 18 -23 6 -28 19 -10 25 8 3 6 10 -5 21 -17 16 -17 27 -1 152 2
17 1 36 -3 42 -9 15 -72 29 -72 17z"/>
<path d="M24821 16273 l-24 -5 24 -12 c22 -11 24 -18 22 -75 -1 -35 -4 -65 -6
-68 -10 -10 -53 20 -54 39 -2 22 -10 34 -17 27 -3 -3 -6 -182 -8 -399 -3 -425
-4 -428 -54 -416 -18 5 -24 3 -19 -5 4 -6 1 -15 -6 -20 -11 -7 -9 -9 6 -10 11
0 31 -2 45 -5 19 -3 21 -2 10 5 -12 9 -12 11 3 17 9 3 23 2 30 -4 6 -5 31 -12
55 -14 l43 -4 -2 53 c-2 50 9 83 18 56 3 -7 9 -13 14 -13 11 0 39 -29 55 -56
7 -11 21 -18 33 -17 12 2 21 -1 21 -5 0 -4 53 -8 118 -8 112 -2 119 -1 128 20
7 16 16 20 42 18 33 -4 38 3 22 28 -8 13 -10 12 -10 -4 0 -14 -5 -17 -24 -12
-16 4 -30 0 -40 -9 -9 -10 -17 -11 -21 -5 -4 6 -12 7 -18 3 -7 -4 -49 -9 -95
-10 -80 -4 -83 -3 -92 22 -13 33 -40 33 -40 -1 0 -15 -4 -23 -11 -18 -6 3 -9
15 -6 25 4 14 0 19 -14 19 -24 0 -39 29 -40 77 0 21 -3 32 -6 26 -2 -7 -10
-13 -17 -13 -8 0 -13 39 -15 138 -2 75 -4 146 -5 157 0 11 4 20 9 20 6 0 9 -6
9 -12 -1 -7 2 -13 7 -13 5 0 9 7 9 15 0 8 5 15 10 15 6 0 10 18 10 40 0 22 -5
40 -11 40 -17 0 -39 66 -38 117 2 184 -2 263 -14 262 -6 -1 -23 -4 -36 -6z"/>
<path d="M28655 16217 c-22 -8 -26 -14 -23 -40 2 -17 8 -32 15 -34 7 -3 9 3 6
16 -4 15 -1 21 11 21 9 0 16 4 16 8 0 7 30 8 106 3 14 -1 24 -10 28 -26 4 -16
11 -22 21 -19 10 4 15 0 15 -10 0 -9 16 -30 35 -47 19 -17 35 -39 35 -49 0
-10 8 -21 18 -25 16 -6 16 -7 0 -19 -10 -8 -17 -29 -19 -61 -3 -46 -1 -50 19
-49 12 0 22 -3 22 -7 0 -10 -28 -19 -42 -14 -8 3 -20 -12 -30 -36 -10 -24 -22
-38 -28 -34 -17 11 -40 -15 -40 -45 0 -18 -8 -31 -25 -40 -14 -7 -25 -17 -25
-22 0 -5 4 -7 9 -4 5 4 11 1 13 -5 4 -13 68 15 68 31 0 5 8 16 17 26 10 9 18
22 18 28 2 25 18 46 36 46 12 0 19 7 19 20 0 12 7 20 16 20 12 0 15 10 13 53
-3 46 -1 52 16 52 18 0 20 8 22 70 1 47 -2 62 -7 45 -6 -19 -8 -20 -9 -6 -1
28 -46 65 -70 59 -14 -4 -23 1 -28 13 -12 32 -31 45 -57 38 -21 -5 -24 -3 -19
14 2 11 -1 23 -8 28 -18 11 -131 12 -164 1z"/>
<path d="M30470 16220 c0 -6 7 -22 16 -35 9 -13 13 -28 10 -33 -3 -5 1 -24 10
-41 12 -24 13 -38 5 -64 -12 -40 -17 -264 -7 -332 6 -36 5 -46 -3 -35 -9 13
-11 12 -10 -5 1 -11 4 -31 8 -45 5 -18 9 -21 15 -12 13 22 48 -43 40 -74 -5
-17 -9 -22 -14 -14 -6 9 -9 7 -14 -6 -8 -27 -4 -84 6 -84 15 0 8 -26 -13 -48
-18 -21 -19 -24 -4 -39 19 -18 187 -29 227 -14 21 7 20 9 -15 20 -20 7 -60 11
-87 9 l-50 -4 4 260 c3 144 6 317 8 386 2 69 -1 141 -6 160 -5 19 -10 38 -10
43 -1 4 -4 7 -8 7 -5 0 -12 0 -18 0 -5 0 -10 -9 -10 -20 0 -13 -5 -17 -14 -14
-8 3 -16 0 -19 -8 -2 -7 -3 -4 -1 6 2 11 -2 26 -8 33 -13 16 -38 17 -38 3z"/>
<path d="M31496 16222 c-2 -1 -25 -3 -52 -3 -74 0 -101 -8 -107 -30 -4 -16
-11 -18 -31 -13 -21 5 -26 3 -26 -13 0 -13 -12 -23 -35 -32 -33 -12 -35 -15
-35 -58 0 -34 -3 -44 -14 -40 -9 4 -16 -4 -20 -25 -9 -45 -9 -44 29 -81 19
-19 35 -41 35 -50 0 -18 33 -40 45 -29 4 4 4 -3 1 -15 -6 -17 -3 -23 8 -23 12
0 14 -5 8 -22 -10 -28 -5 -58 10 -58 6 0 5 -7 -3 -17 -12 -14 -12 -15 1 -10 8
4 22 10 32 13 9 3 19 15 21 26 5 18 11 20 46 14 42 -6 96 8 87 23 -4 5 3 7 14
4 12 -3 20 0 20 7 0 9 -11 11 -42 5 -24 -4 -49 -7 -55 -6 -7 1 -24 3 -38 4
-14 1 -25 8 -25 15 0 7 -11 24 -25 38 -14 14 -25 31 -25 39 0 8 -6 15 -14 15
-21 0 -26 23 -26 111 0 74 1 79 21 79 13 0 23 8 26 21 3 11 11 18 18 15 16 -6
35 13 35 35 0 21 28 32 75 28 19 -2 37 0 41 3 3 4 13 0 21 -8 9 -8 20 -13 26
-11 6 2 25 -12 41 -30 17 -18 37 -33 43 -33 7 0 13 -7 13 -15 0 -8 5 -15 12
-15 6 0 8 -3 5 -6 -3 -4 -2 -15 4 -25 6 -11 6 -19 0 -19 -8 0 -6 -80 3 -106 3
-6 -6 -16 -20 -23 -13 -6 -24 -15 -24 -21 0 -6 -4 -9 -8 -6 -4 3 -16 -11 -27
-30 -10 -19 -23 -34 -30 -34 -6 0 -11 -15 -12 -32 0 -27 10 -42 48 -78 45 -43
48 -48 54 -110 3 -36 8 -75 11 -88 3 -14 0 -21 -8 -20 -7 2 -12 -2 -11 -9 2
-6 -7 -15 -19 -18 -16 -6 -18 -9 -7 -16 11 -7 10 -9 -3 -9 -10 0 -18 -6 -18
-12 0 -10 -3 -9 -9 1 -6 9 -11 10 -15 2 -4 -6 -4 -11 1 -12 4 0 29 -2 56 -5
37 -4 47 -1 47 10 0 8 10 16 23 18 24 3 31 33 7 33 -8 0 -18 7 -21 15 -7 18
-1 40 12 40 4 0 6 -6 3 -14 -3 -7 2 -16 10 -19 11 -4 13 -1 9 10 -5 13 -3 14
16 4 17 -10 22 -9 27 4 7 17 -4 90 -13 82 -3 -3 -15 3 -26 14 -13 12 -18 23
-12 27 6 4 11 22 12 40 1 32 0 32 -33 26 -26 -5 -35 -2 -40 10 -6 15 -8 15
-20 -1 -12 -17 -13 -16 -14 10 0 15 5 27 10 27 15 0 13 107 -2 113 -7 2 11 3
40 1 49 -4 53 -2 62 22 6 14 10 36 10 48 0 16 7 26 21 29 15 4 20 11 15 22 -3
9 -6 25 -6 36 0 10 -7 19 -15 19 -11 0 -15 11 -15 38 0 41 -33 102 -45 82 -5
-8 -11 -6 -20 7 -7 9 -26 18 -41 19 -16 1 -34 3 -41 3 -6 1 -9 9 -6 20 4 16
-2 19 -37 23 -22 2 -42 2 -44 0z"/>
<path d="M20090 16180 c-13 -8 -13 -10 0 -10 11 0 11 -3 2 -12 -10 -10 -15
-10 -21 1 -5 8 -16 11 -26 8 -9 -4 -13 -11 -10 -17 7 -12 -43 6 -62 22 -10 8
-13 6 -13 -6 0 -9 8 -16 20 -16 12 0 32 -11 45 -24 24 -24 24 -27 25 -228 1
-112 2 -221 2 -243 1 -22 0 -92 -1 -155 -3 -129 -12 -150 -65 -150 l-31 -1 37
-19 c29 -16 54 -19 117 -17 58 1 81 6 81 15 0 9 5 10 19 2 30 -16 112 -13 105
4 -3 7 -16 12 -29 10 -14 -1 -27 2 -31 7 -3 5 -20 9 -39 9 -33 0 -34 1 -40 53
-4 28 -5 197 -3 374 2 177 0 315 -4 305 -6 -15 -8 -14 -14 6 -3 12 -11 22 -16
22 -6 0 -8 16 -6 35 4 37 -10 46 -42 25z"/>
<path d="M20440 16180 c0 -20 45 -40 76 -34 54 10 57 -6 59 -316 2 -255 -4
-330 -25 -330 -28 0 -40 15 -40 50 0 37 -23 75 -39 65 -4 -2 -8 12 -9 32 -1
24 -10 43 -27 59 -16 14 -25 34 -25 52 0 25 -14 42 -36 42 -2 0 -1 -26 2 -57
5 -39 15 -67 31 -86 12 -16 23 -41 23 -56 0 -16 11 -40 25 -55 15 -16 25 -39
25 -57 0 -16 4 -29 8 -29 12 0 42 -56 42 -79 0 -12 5 -21 10 -21 6 0 21 -9 33
-21 12 -11 30 -18 40 -15 10 2 31 1 47 -4 24 -7 29 -5 34 14 10 40 6 706 -4
706 -6 0 -10 5 -10 11 0 5 5 7 10 4 6 -4 10 10 10 33 0 32 -4 41 -22 45 -14 4
-26 0 -34 -11 -10 -14 -11 -13 -7 10 5 28 40 45 57 28 13 -13 46 -13 46 1 0 5
4 7 10 4 5 -3 18 -1 27 4 10 6 16 11 13 12 -20 7 -350 5 -350 -1z"/>
<path d="M29556 16183 c-31 -5 -50 -20 -52 -40 -3 -36 -4 -38 -12 -25 -15 22
-42 2 -43 -32 0 -17 -4 -49 -8 -71 -8 -39 -8 -39 -19 -15 -10 24 -11 24 -13
-10 -1 -19 -1 -38 0 -42 0 -4 -7 -4 -16 -1 -12 5 -14 3 -7 -8 4 -8 9 -25 10
-39 1 -14 0 -17 -3 -7 -7 25 -26 21 -20 -5 21 -94 21 -92 4 -85 -10 4 -17 2
-17 -2 0 -13 47 -56 62 -56 7 0 13 -9 13 -20 0 -16 -6 -19 -26 -17 -28 3 -45
-19 -32 -41 4 -7 0 -7 -9 1 -14 11 -16 10 -11 -7 3 -12 9 -21 14 -21 5 0 9 -9
9 -20 0 -11 5 -20 10 -20 6 0 11 -12 11 -27 1 -17 3 -21 6 -10 2 9 11 17 20
17 9 0 13 -6 10 -14 -5 -14 10 -40 47 -83 26 -30 35 -29 31 5 -2 15 -4 35 -4
45 -1 9 -6 17 -11 17 -6 0 -19 8 -29 18 -16 16 -16 30 -5 214 11 188 13 199
35 217 20 16 23 27 23 89 l0 70 31 -3 c16 -2 37 -5 45 -6 9 -3 16 5 18 19 4
23 0 24 -62 15z"/>
<path d="M29817 16146 c-3 -8 1 -17 9 -20 10 -4 13 -20 9 -66 -3 -51 -1 -61
15 -70 17 -9 19 -20 15 -98 -2 -48 1 -92 5 -98 5 -5 10 -45 11 -87 1 -67 4
-77 20 -77 9 0 20 -8 22 -17 4 -17 5 -17 6 0 0 9 7 17 15 17 18 0 25 54 27
191 1 103 -4 135 -20 125 -9 -6 -10 0 -17 82 -4 38 -10 62 -18 62 -6 0 -19 9
-29 20 -9 11 -23 17 -32 14 -10 -4 -15 0 -15 15 0 24 -15 28 -23 7z"/>
<path d="M20240 16076 c0 -8 -7 -16 -15 -18 -13 -3 -13 -6 0 -32 8 -15 15 -40
15 -55 0 -18 3 -22 9 -12 15 24 51 -18 51 -59 0 -20 7 -45 15 -56 8 -10 15
-31 15 -46 0 -16 4 -28 9 -28 5 0 12 -8 14 -17 3 -12 5 -10 5 7 1 14 4 46 8
72 6 41 4 48 -19 68 -14 12 -28 37 -31 55 -4 18 -13 38 -20 45 -8 6 -17 29
-21 51 -4 24 -12 39 -21 39 -8 0 -14 -6 -14 -14z"/>
<path d="M17206 16000 c-6 -23 -5 -35 3 -38 12 -4 15 -32 3 -32 -4 0 -13 5
-20 12 -9 9 -12 8 -12 -5 0 -9 -7 -17 -15 -17 -10 0 -15 -10 -15 -30 0 -16 5
-30 10 -30 6 0 10 7 10 15 0 18 8 18 40 0 l25 -14 -27 -1 c-50 0 -58 -9 -58
-60 0 -45 15 -73 36 -69 23 4 26 -2 9 -15 -17 -12 -18 -16 -5 -32 12 -16 12
-17 0 -6 -21 19 -33 14 -27 -10 4 -12 1 -28 -4 -35 -8 -9 -4 -18 14 -35 13
-13 27 -32 30 -43 5 -20 5 -20 6 1 0 11 -4 25 -10 31 -8 8 -6 17 7 32 10 11
21 21 25 21 7 0 36 -65 42 -95 3 -11 5 81 5 205 0 173 -3 219 -11 197 -11 -28
-31 -32 -33 -6 0 8 -4 21 -7 29 -3 8 -8 26 -9 40 -4 22 -5 21 -12 -10z"/>
<path d="M14283 15988 c-6 -7 -12 -20 -15 -28 -6 -17 -76 -43 -91 -33 -5 3 -7
-3 -5 -13 2 -14 11 -18 33 -16 17 1 45 3 63 4 27 2 32 5 28 21 -2 10 4 27 14
37 16 16 20 17 31 4 13 -16 54 -20 44 -4 -4 6 7 10 27 9 18 0 27 -3 21 -6 -7
-2 -13 -8 -13 -13 0 -11 49 -19 52 -9 2 5 23 11 47 14 33 4 42 2 38 -8 -3 -7
4 -24 14 -38 10 -13 19 -19 19 -14 0 6 5 3 10 -5 6 -10 10 -11 10 -2 0 6 5 12
10 12 6 0 10 -7 10 -15 0 -8 9 -15 20 -15 14 0 20 7 20 22 0 12 3 18 8 14 10
-11 9 -30 -2 -37 -5 -4 -5 -15 -1 -25 6 -17 9 -15 21 13 15 35 10 63 -12 63
-8 0 -14 5 -14 10 0 6 -11 10 -24 10 -16 0 -26 7 -30 23 -6 21 -7 21 -20 5
-16 -21 -27 -24 -20 -4 4 10 -6 15 -33 18 -21 3 -42 3 -48 -1 -18 -10 -39 -10
-51 0 -7 6 -31 8 -53 6 -22 -2 -38 0 -35 5 8 13 -63 9 -73 -4z"/>
<path d="M21159 15973 c-13 -13 -33 -24 -44 -25 -11 0 -26 -2 -34 -2 -17 -1
-28 -26 -12 -26 6 0 11 -4 11 -9 0 -5 -18 -11 -40 -15 -36 -6 -40 -9 -35 -29
7 -26 -10 -77 -25 -77 -5 0 -10 11 -10 25 0 14 -4 25 -10 25 -12 0 -8 -73 5
-82 6 -5 5 -8 -2 -9 -7 -1 -17 -3 -23 -4 -5 -1 -15 -3 -21 -4 -31 -3 19 -245
62 -297 41 -50 159 -101 151 -66 -1 8 2 11 7 8 5 -4 8 -17 5 -30 -6 -33 19
-37 170 -32 84 3 121 8 127 18 7 10 9 9 9 -5 0 -10 5 -15 10 -12 6 3 10 14 10
25 0 21 19 30 64 30 25 0 36 6 46 25 7 14 19 25 27 25 7 0 13 6 13 14 0 8 9
21 20 29 16 11 19 21 15 49 -5 29 -3 35 12 35 10 0 21 -5 25 -11 7 -10 9 18
10 124 0 81 -2 89 -22 95 -16 5 -20 15 -20 46 0 22 -4 38 -9 34 -5 -3 -18 6
-28 19 -11 13 -28 25 -39 27 -11 3 -20 14 -22 27 -3 21 -12 26 -39 23 -21 -3
-53 19 -53 34 0 17 -6 18 -166 19 -112 1 -122 -1 -145 -21z m251 -33 c8 -5 32
-25 52 -47 20 -21 55 -57 78 -81 l41 -43 2 -141 c2 -103 5 -142 15 -146 16 -5
6 -22 -14 -22 -8 0 -14 8 -14 18 0 10 -3 21 -6 25 -9 9 -84 -54 -84 -70 0 -7
-7 -16 -15 -19 -8 -4 -15 -12 -15 -19 0 -31 -34 -42 -147 -43 -70 -2 -113 2
-114 8 -1 5 -2 16 -3 23 0 6 -8 12 -16 12 -8 0 -22 13 -29 29 -8 16 -23 31
-33 34 -10 2 -18 9 -18 15 0 5 -11 20 -25 33 -24 22 -25 29 -26 136 0 62 -2
123 -5 136 -2 13 0 21 5 18 5 -3 12 1 15 10 5 14 9 14 22 3 15 -12 16 -10 9
20 -7 32 -6 34 18 29 19 -4 27 0 30 13 3 11 17 23 31 29 16 6 26 17 26 29 0
14 8 21 28 24 36 7 173 -3 192 -13z"/>
<path d="M21892 15989 c-31 -12 -23 -33 13 -37 36 -5 52 -21 47 -48 -2 -13 6
-31 22 -49 14 -15 26 -38 26 -51 0 -12 12 -35 28 -51 16 -17 28 -42 30 -63 2
-19 8 -36 13 -38 5 -2 9 -10 9 -18 0 -8 5 -14 10 -14 6 0 10 -11 10 -24 0 -55
12 -86 34 -87 11 0 16 -3 10 -5 -8 -4 -8 -15 2 -42 19 -55 53 -117 64 -118 6
-1 20 -2 33 -3 18 -1 19 -3 7 -11 -11 -7 -4 -10 28 -10 l42 0 -6 40 c-6 36 -4
40 20 46 23 5 26 11 26 50 0 32 4 44 15 44 18 0 29 41 21 73 -4 18 -13 24 -36
25 -23 0 -31 -3 -29 -16 3 -36 -2 -53 -23 -74 -14 -14 -23 -36 -24 -63 -1 -22
-3 -41 -4 -42 -1 -2 -3 -7 -4 -13 0 -5 -4 -10 -8 -10 -5 0 -13 0 -19 0 -8 0
-7 5 1 16 11 12 11 15 1 12 -13 -3 -18 10 -28 69 -4 24 -9 31 -24 28 -20 -4
-20 -4 -24 90 -3 61 -4 65 -19 59 -17 -7 -26 25 -26 93 0 50 -1 52 -22 44 -23
-8 -23 -7 -26 81 l-3 90 45 -3 c30 -3 47 0 50 8 3 7 2 15 -3 17 -15 10 -256
14 -279 5z"/>
<path d="M22340 15978 c0 -15 7 -18 33 -17 44 3 75 -8 88 -32 13 -25 2 -79
-16 -79 -19 0 -26 -28 -19 -76 6 -43 -8 -74 -35 -74 -6 0 -11 -6 -12 -12 0 -7
-2 -28 -5 -45 -3 -25 0 -33 12 -33 8 0 12 5 9 10 -3 6 0 10 7 10 10 0 11 2 0
8 -7 5 -10 16 -6 25 8 21 24 12 24 -13 0 -11 9 -24 20 -30 18 -10 20 -8 20 31
0 32 4 42 20 46 19 5 26 39 23 111 -1 9 6 12 17 9 15 -4 20 3 25 32 3 20 16
54 29 76 21 39 24 40 69 37 26 -2 47 1 47 6 0 13 -94 24 -232 27 -109 2 -118
0 -118 -17z"/>
<path d="M23147 15986 c-66 -9 -68 -10 -62 -34 6 -23 4 -24 -34 -17 -32 5 -43
3 -60 -14 -12 -12 -25 -21 -30 -21 -5 0 -14 -13 -20 -30 -5 -16 -16 -30 -23
-30 -8 0 -19 -23 -27 -57 -16 -71 -22 -82 -32 -57 -5 11 -8 -11 -8 -56 -1 -48
4 -84 14 -100 8 -14 26 -51 41 -82 15 -32 30 -58 35 -58 5 0 6 7 2 16 -4 12 0
15 18 12 13 -2 23 -9 21 -16 -4 -22 53 -82 79 -82 9 0 19 -9 22 -20 3 -14 14
-20 31 -20 26 0 33 10 19 24 -8 8 -10 13 -12 46 -1 17 -8 20 -45 20 -46 0 -56
11 -56 67 0 12 -9 28 -20 36 -28 19 -38 101 -17 140 13 24 16 25 27 12 10 -12
15 -13 21 -4 6 10 16 10 46 2 29 -9 53 -8 98 2 49 10 62 10 69 0 8 -11 17 -10
49 2 28 12 41 13 46 5 4 -7 25 -11 48 -9 31 1 39 6 36 17 -4 12 -3 13 5 1 8
-11 72 -40 90 -41 2 0 0 9 -3 20 -5 14 -2 20 9 20 9 0 16 -4 16 -10 0 -16 27
-11 34 6 3 9 6 38 6 64 0 43 -4 53 -37 85 -20 19 -40 35 -45 35 -4 0 -8 7 -8
16 0 30 -62 66 -115 68 -25 1 -30 5 -30 26 0 24 -2 25 -65 25 -36 0 -96 -4
-133 -9z m28 -26 c3 -5 40 -9 81 -8 42 1 79 -3 82 -8 4 -5 19 -17 35 -27 15
-10 27 -23 27 -30 0 -7 14 -26 30 -42 24 -23 30 -37 30 -69 0 -71 2 -70 -202
-72 -101 -2 -190 -5 -198 -8 -8 -3 -28 -2 -45 2 -27 7 -30 13 -33 51 -3 35 0
43 16 47 13 4 21 20 28 57 l9 52 40 0 c31 0 40 4 40 17 0 10 9 24 20 32 24 18
32 19 40 6z"/>
<path d="M23710 15978 c0 -10 9 -18 23 -20 45 -6 54 -49 51 -255 -1 -103 -3
-219 -3 -258 -1 -66 -3 -71 -28 -82 -20 -10 -29 -10 -34 -2 -4 8 -11 4 -19
-10 -11 -22 -10 -22 38 -19 28 2 48 7 44 12 -3 6 3 6 14 1 36 -14 64 -17 109
-11 44 7 63 26 26 26 -14 0 -21 9 -26 38 -7 45 2 489 11 503 3 6 12 8 20 5 10
-4 14 3 14 25 0 31 0 31 43 24 23 -4 46 -14 50 -21 5 -8 11 -13 15 -10 4 2 7
-129 8 -291 0 -243 3 -296 14 -303 9 -6 17 -5 22 2 4 8 14 9 30 2 13 -5 46 -7
73 -3 28 3 39 7 25 8 -53 3 -52 0 -51 272 1 140 3 263 5 274 2 13 10 19 24 18
14 -2 22 5 27 25 12 41 13 62 3 62 -4 0 -8 -5 -8 -11 0 -6 -9 -8 -20 -4 -14 5
-20 2 -20 -10 0 -23 -81 -18 -87 5 -5 19 -3 18 -230 23 -148 2 -163 1 -163
-15z"/>
<path d="M18170 15950 c-4 -56 -12 -86 -25 -96 -18 -13 -31 -83 -27 -137 3
-31 6 -36 17 -27 8 7 15 7 19 1 3 -5 16 -7 29 -4 l22 6 -24 -23 c-21 -20 -21
-24 -7 -32 9 -5 16 -16 16 -24 0 -9 7 -22 15 -30 10 -10 15 -35 15 -74 0 -49
-3 -58 -15 -54 -8 4 -15 13 -15 22 0 8 -3 12 -6 9 -12 -12 26 -75 48 -82 13
-4 26 -7 30 -6 4 0 5 -6 1 -14 -3 -10 6 -25 23 -41 22 -19 37 -24 64 -21 19 2
48 0 65 -4 17 -5 33 -5 38 0 12 12 -53 25 -80 17 -22 -7 -51 8 -34 18 18 12
12 36 -9 36 -17 0 -19 -5 -14 -25 5 -21 3 -24 -11 -19 -12 5 -16 18 -15 48 4
95 3 98 -30 92 -16 -2 -30 0 -30 5 0 5 5 9 11 9 8 0 10 21 5 74 -5 59 -4 75 9
86 10 8 15 9 15 1 0 -6 5 -11 10 -11 7 0 10 25 8 65 -2 57 -4 64 -20 59 -17
-5 -23 5 -19 30 4 19 -21 116 -30 116 -5 0 -9 -8 -9 -17 0 -26 -17 -4 -28 37
-9 30 -10 32 -12 10z"/>
<path d="M10163 15935 c0 -29 -13 -47 -20 -27 -3 8 -11 4 -24 -12 -23 -29 -24
-36 -4 -36 8 0 15 -4 15 -10 0 -5 7 -10 15 -10 8 0 15 -4 15 -10 0 -13 -37
-50 -43 -44 -2 3 -7 -2 -10 -11 -5 -10 0 -15 13 -15 24 0 27 -18 5 -27 -14 -5
-14 -8 -2 -22 22 -26 32 -45 19 -37 -8 5 -12 0 -12 -12 0 -22 -22 -34 -45 -26
-21 8 -19 20 5 37 l21 14 -21 6 c-13 3 -18 10 -14 21 3 9 1 16 -5 16 -14 0
-15 -27 -1 -35 6 -3 10 -11 10 -16 0 -6 -4 -7 -10 -4 -6 4 -10 -6 -10 -22 0
-22 5 -29 21 -30 12 -1 27 -7 33 -14 8 -8 5 -10 -11 -4 -17 5 -23 2 -23 -9 0
-9 9 -16 20 -16 29 0 43 -42 44 -132 1 -85 10 -104 41 -82 18 14 19 15 2 44
-23 39 -30 207 -15 393 7 92 7 142 0 149 -6 6 -9 1 -9 -17z"/>
<path d="M24451 15938 c0 -10 -5 -18 -10 -18 -5 0 -16 -3 -25 -6 -11 -4 -16
-1 -16 10 0 9 -4 16 -10 16 -17 0 -11 -35 9 -47 20 -13 35 -96 16 -90 -5 2
-12 12 -13 23 -11 58 -17 16 -18 -116 0 -124 2 -146 12 -132 12 16 13 15 14
-4 0 -11 -4 -24 -9 -30 -10 -10 -15 -71 -13 -156 l2 -57 100 1 c77 1 100 4
100 14 0 8 -3 13 -7 13 -5 -1 -12 0 -18 1 -5 1 -21 3 -35 3 -29 2 -27 -25 -29
294 -1 220 -2 232 -20 238 -12 3 -22 17 -24 33 -2 15 -5 19 -6 10z"/>
<path d="M25258 15929 c-21 -23 -22 -29 -5 -29 23 0 59 -41 54 -61 -3 -12 0
-19 8 -19 7 0 19 -13 26 -29 7 -16 17 -27 21 -25 4 3 3 -7 -2 -21 -13 -33 -13
-38 0 -30 6 3 10 1 10 -4 0 -6 -4 -11 -10 -11 -5 0 -10 -18 -10 -41 0 -25 4
-38 10 -34 25 15 36 -15 33 -90 -2 -57 1 -75 10 -72 7 2 11 18 9 36 -1 18 2
30 7 27 5 -4 12 -2 16 4 3 5 1 10 -4 10 -21 0 -11 18 14 24 25 6 25 8 23 96
-2 60 -7 90 -14 90 -7 0 -16 21 -20 47 -10 51 -34 72 -34 29 0 -14 -5 -26 -11
-26 -8 0 -10 14 -6 42 5 34 2 44 -16 59 -12 10 -28 18 -34 19 -7 0 -13 7 -13
15 0 21 -41 17 -62 -6z"/>
<path d="M25782 15938 c-9 -9 -9 -15 1 -27 10 -12 9 -14 -6 -8 -25 9 -67 -40
-61 -70 2 -13 6 -33 9 -46 3 -16 0 -24 -10 -24 -10 0 -15 11 -15 33 0 18 -4
35 -8 38 -4 3 -8 -17 -7 -45 1 -41 -2 -49 -17 -49 -16 0 -18 -6 -13 -52 4 -29
11 -57 16 -62 6 -6 9 -6 9 2 0 7 9 12 20 12 11 0 20 -4 20 -10 0 -5 -7 -10
-15 -10 -20 0 -19 -16 1 -24 11 -4 14 -13 11 -27 -7 -27 1 -49 19 -49 8 0 15
-3 16 -7 4 -20 8 -70 8 -90 0 -13 5 -23 11 -23 5 0 7 5 3 12 -5 8 -2 9 9 5 11
-4 17 -1 17 8 0 8 -4 15 -10 15 -5 0 -10 14 -10 32 0 17 -7 40 -17 50 -21 23
-20 95 1 137 17 32 34 39 53 20 6 -6 16 -8 22 -5 21 13 11 23 -25 24 -45 2
-63 24 -64 76 0 36 2 38 25 34 20 -4 25 -1 25 14 0 11 -5 28 -10 39 -9 16 -7
19 9 19 15 0 18 5 14 23 -3 16 -2 18 5 8 7 -10 14 -11 31 -2 12 7 27 9 34 6 6
-4 1 3 -12 14 -26 23 -70 28 -89 9z"/>
<path d="M17696 15922 c-9 -17 -5 -196 5 -208 9 -11 9 -18 0 -28 -7 -9 -11
-46 -10 -95 1 -72 4 -81 20 -81 11 0 19 5 19 12 0 9 3 9 12 0 20 -20 23 -14
20 43 -3 44 -1 55 11 55 9 0 19 -5 23 -12 12 -19 21 30 16 90 -3 44 -7 52 -23
52 -11 0 -19 6 -18 13 3 23 -1 37 -11 37 -5 0 -9 -3 -9 -7 3 -21 -3 -21 -22
-2 -11 11 -18 24 -14 27 3 4 11 0 16 -8 8 -11 12 -12 16 -2 2 6 9 10 14 6 5
-3 9 -1 9 5 0 5 -5 13 -10 16 -8 5 -7 12 2 23 11 13 11 16 -1 20 -8 3 -25 15
-38 28 -12 12 -24 20 -27 16z"/>
<path d="M12197 15879 c6 -6 9 -18 6 -26 -3 -9 -8 -11 -12 -5 -4 7 -14 5 -26
-4 -17 -13 -18 -16 -5 -24 9 -6 10 -10 3 -10 -6 0 -13 -6 -16 -12 -2 -7 -3 -5
-2 4 6 35 -14 28 -21 -7 -5 -29 -2 -40 13 -55 11 -10 29 -20 39 -22 11 -2 20
-13 22 -26 3 -18 8 -21 30 -16 16 4 23 3 19 -2 -5 -5 -13 -10 -18 -10 -5 -1
-14 -2 -20 -3 -5 0 -8 -5 -5 -10 3 -4 32 -11 64 -14 33 -2 71 -12 85 -22 14
-9 31 -14 36 -11 5 4 12 2 15 -3 7 -11 256 -14 256 -2 0 5 9 11 21 14 20 6 20
6 0 26 -10 10 -30 25 -42 32 -19 9 -24 9 -34 -5 -14 -18 -45 -12 -45 9 0 8 -9
10 -25 7 -14 -2 -25 -8 -25 -13 0 -5 -9 -9 -20 -9 -11 0 -20 5 -20 10 0 6 -15
10 -34 10 -46 0 -66 9 -66 29 0 15 -9 18 -53 17 -48 -1 -53 1 -49 18 3 10 -2
22 -10 27 -9 5 -14 18 -11 32 3 14 -2 31 -11 40 -15 14 -14 16 2 20 16 4 16 5
0 6 -10 0 -18 6 -18 11 0 6 -8 10 -17 10 -13 0 -14 -3 -6 -11z"/>
<path d="M11189 15875 c-1 -3 -2 -10 -3 -17 0 -6 -7 -13 -15 -16 -8 -3 -11 0
-7 7 11 18 -3 13 -26 -9 -14 -13 -24 -16 -29 -9 -8 14 -19 -26 -18 -66 1 -17
3 -22 6 -12 8 32 19 17 17 -25 -2 -48 4 -70 17 -62 5 3 9 1 9 -5 0 -5 21 -9
48 -8 32 2 51 -2 59 -13 10 -12 15 -13 33 -2 15 9 53 11 148 6 213 -11 276 -9
266 8 -5 8 -2 9 9 5 20 -8 29 4 17 23 -5 9 -5 19 1 26 7 8 6 14 -1 19 -5 3
-14 -5 -20 -19 -6 -16 -17 -26 -30 -26 -12 0 -20 -7 -20 -16 0 -14 -8 -16 -51
-11 -28 4 -56 11 -63 16 -6 5 -78 8 -166 7 -85 -2 -164 0 -175 5 -17 5 -21 17
-23 58 -2 45 0 51 18 51 17 0 20 7 20 45 0 25 -4 45 -10 45 -5 0 -11 -2 -11
-5z"/>
<path d="M14715 15826 c-14 -10 -25 -11 -37 -5 -16 9 -18 5 -18 -30 0 -41 -11
-52 -60 -57 -14 -2 -37 -5 -51 -8 -15 -3 -30 -2 -34 2 -3 4 -28 8 -55 9 -40 1
-47 -1 -43 -16 2 -9 12 -17 21 -18 9 -1 45 -3 80 -6 76 -5 102 -26 102 -84 1
-21 6 -67 13 -103 10 -51 16 -66 32 -69 18 -3 44 -28 45 -43 0 -3 -14 0 -30 9
-23 11 -34 12 -44 4 -7 -6 -16 -8 -19 -4 -7 6 -37 -15 -37 -27 0 -4 12 -6 28
-3 26 3 26 3 4 -7 -28 -12 -20 -30 12 -30 15 0 31 -10 41 -26 13 -21 19 -24
26 -13 13 20 11 29 -6 29 -11 0 -12 6 -6 22 10 28 34 37 29 12 -2 -14 3 -19
19 -18 13 0 21 -2 18 -4 -2 -3 8 -15 22 -28 23 -20 29 -21 36 -9 11 20 77 20
77 0 0 -8 5 -15 10 -15 18 0 11 29 -9 40 -11 5 -37 10 -59 10 -58 0 -67 16
-69 134 -2 96 -7 167 -19 264 -3 28 -1 42 7 42 8 0 8 4 -1 15 -10 12 -10 18 0
30 16 19 0 20 -25 1z"/>
<path d="M18363 15823 c0 -12 17 -17 44 -14 6 1 31 -3 55 -9 23 -6 56 -12 72
-13 20 -1 31 -9 37 -24 7 -19 5 -23 -11 -23 -13 0 -17 -5 -14 -14 4 -9 15 -13
31 -10 22 4 24 3 15 -9 -10 -11 -9 -17 3 -27 13 -10 15 -25 10 -65 -13 -97
-11 -164 3 -153 6 6 12 24 12 40 0 25 2 28 20 18 20 -11 18 -36 -4 -53 -8 -6
-7 -10 2 -14 6 -2 12 -12 12 -21 0 -12 3 -13 11 -5 6 6 10 30 7 52 -3 37 -1
41 18 41 18 0 23 8 28 48 4 26 9 55 12 65 3 9 2 17 -3 17 -10 0 -33 -49 -33
-70 0 -9 -3 -19 -6 -23 -11 -10 -34 20 -28 36 3 8 0 18 -6 22 -7 4 -10 1 -8
-10 2 -10 -3 -20 -9 -22 -15 -6 -17 23 -3 32 6 4 7 11 4 17 -4 7 -2 8 4 4 7
-4 12 -2 12 4 0 6 4 8 10 5 11 -7 19 26 18 73 -1 36 -9 40 -32 17 -14 -14 -18
-14 -41 1 -25 16 -34 44 -15 44 6 0 10 -7 10 -15 0 -8 7 -15 15 -15 8 0 15 6
15 14 0 16 -34 31 -49 21 -5 -3 -12 -1 -16 5 -3 5 -21 11 -38 11 -18 1 -24 3
-14 6 9 2 17 11 17 20 0 12 -14 14 -83 11 -59 -2 -84 -7 -84 -15z"/>
<path d="M15329 15826 c-1 -3 -3 -10 -4 -16 -1 -5 -3 -17 -4 -25 0 -8 -8 -15
-16 -15 -8 0 -15 7 -15 15 0 8 -5 15 -10 15 -7 0 -7 -6 0 -20 7 -14 7 -20 0
-20 -5 0 -10 -7 -10 -16 0 -8 4 -13 9 -10 4 3 7 -6 5 -19 -1 -17 4 -29 17 -35
10 -6 19 -18 19 -28 0 -9 14 -44 30 -77 17 -33 30 -65 30 -71 0 -6 11 -16 25
-22 18 -9 25 -19 25 -41 0 -16 7 -36 15 -45 8 -8 15 -19 15 -25 0 -6 5 -11 11
-11 8 0 10 -17 6 -56 -4 -40 -2 -54 6 -51 7 3 11 10 9 16 -4 20 26 12 42 -11
15 -22 16 -21 16 27 0 55 6 68 33 78 11 4 17 17 17 39 0 26 -3 30 -11 18 -8
-11 -12 -12 -16 -2 -2 6 -17 12 -33 12 -26 0 -29 3 -35 52 -5 33 -14 58 -25
65 -10 7 -20 31 -24 53 -5 35 -9 40 -26 35 -14 -4 -19 -1 -19 12 -2 55 -15 96
-32 100 -12 3 -21 18 -25 39 -5 30 -22 55 -25 40z"/>
<path d="M26230 15776 c0 -53 -1 -55 -32 -65 -63 -19 -93 -21 -146 -11 -54 10
-102 0 -102 -21 0 -7 22 -9 70 -6 39 2 73 1 75 -4 3 -4 17 -4 31 1 14 6 30 7
36 4 16 -10 98 6 95 19 -2 12 34 11 43 -1 3 -4 13 -8 23 -10 14 -2 17 5 17 53
0 30 -4 55 -10 55 -5 0 -10 -4 -10 -10 0 -18 -18 -11 -25 10 -5 16 -10 18 -26
10 -16 -9 -19 -7 -19 10 0 11 -4 20 -10 20 -5 0 -10 -24 -10 -54z"/>
<path d="M10631 15753 c-1 -13 -5 -23 -11 -23 -13 0 -13 -37 0 -45 5 -3 7 -12
3 -20 -4 -11 -1 -13 11 -9 19 7 21 -2 4 -20 -9 -9 -22 -11 -40 -6 l-26 8 1
-69 c1 -59 4 -69 19 -69 10 0 18 -5 18 -11 0 -6 -9 -9 -20 -6 -18 5 -20 0 -20
-44 0 -48 -5 -54 -37 -50 -7 1 -13 -3 -13 -9 0 -5 -7 -10 -16 -10 -14 0 -14
-3 -4 -15 7 -9 21 -13 30 -10 12 4 19 -1 23 -15 5 -18 10 -19 53 -13 45 6 47
5 42 -15 -7 -25 9 -39 25 -23 6 6 16 11 22 11 5 0 3 -5 -5 -11 -11 -8 -7 -9
19 -5 18 3 42 6 53 6 36 0 7 20 -30 21 -20 0 -32 3 -26 5 10 4 9 41 -3 74 -3
8 -6 29 -8 45 -1 17 -8 43 -15 58 -11 22 -11 33 -2 48 16 25 15 64 -2 78 -11
9 -15 8 -20 -5 -3 -9 -4 -19 -1 -24 3 -4 -6 -15 -19 -24 -20 -12 -26 -13 -35
-2 -12 14 -11 66 1 66 8 0 12 -15 9 -37 -1 -7 5 -10 13 -7 8 3 16 18 18 32 2
21 8 26 26 25 21 -3 22 1 22 67 0 58 -3 68 -15 64 -8 -4 -15 -16 -15 -28 -1
-18 -3 -16 -15 9 -12 27 -13 28 -14 8z"/>
<path d="M14330 15735 c-7 -8 -20 -15 -30 -15 -10 0 -23 -7 -30 -15 -7 -8 -25
-15 -41 -15 -22 0 -29 -5 -29 -20 0 -13 -5 -18 -15 -14 -8 4 -15 1 -15 -5 0
-6 -8 -11 -17 -11 -10 0 -26 -14 -35 -30 -9 -17 -24 -30 -33 -30 -13 0 -15
-14 -13 -92 2 -71 6 -92 16 -90 8 1 11 -2 7 -8 -11 -18 15 -51 36 -45 13 4 17
2 14 -7 -9 -22 35 -40 112 -45 59 -4 73 -3 71 8 -2 9 8 15 25 17 17 2 27 -1
27 -10 0 -10 16 -13 57 -12 48 1 58 4 66 22 6 13 19 22 32 22 16 0 25 8 29 24
3 14 18 38 32 55 35 42 22 39 -20 -4 -27 -27 -42 -35 -70 -35 -29 0 -36 -4
-36 -20 0 -24 -36 -35 -85 -27 -19 3 -50 1 -68 -4 -22 -6 -43 -6 -58 0 -13 5
-18 10 -11 10 24 2 12 29 -18 40 -30 10 -30 10 -32 95 -1 48 -2 94 -2 104 -1
9 5 18 12 18 6 1 19 2 28 3 10 1 14 7 10 16 -9 25 3 43 26 37 16 -4 20 -1 16
10 -11 28 8 41 65 42 52 0 53 1 28 14 -14 7 -28 18 -32 23 -3 6 -11 4 -19 -6z"/>
<path d="M13102 15723 c-6 -3 -9 -9 -6 -15 5 -7 -2 -9 -20 -6 -14 3 -26 1 -26
-3 0 -5 5 -9 10 -9 6 0 10 -10 10 -22 0 -19 -2 -20 -10 -8 -7 11 -10 -3 -10
-47 0 -52 4 -66 25 -89 14 -15 25 -37 25 -50 0 -28 19 -42 31 -23 6 9 6 1 2
-20 -4 -25 -3 -32 5 -27 8 5 12 -5 12 -31 0 -38 1 -39 34 -35 28 3 37 -1 52
-23 9 -14 23 -24 30 -21 8 3 14 1 14 -4 0 -6 14 -10 30 -10 17 0 30 5 30 10 0
6 -4 10 -10 10 -5 0 -10 5 -10 11 0 8 4 8 13 2 18 -15 135 -25 142 -12 4 6 11
6 18 1 7 -5 29 -11 49 -14 34 -4 36 -2 33 22 -1 14 -4 36 -5 50 l-2 25 -7 -25
c-6 -22 -13 -25 -64 -28 -31 -2 -57 -7 -57 -11 0 -12 -53 0 -72 16 -9 8 -22
12 -28 8 -7 -4 -10 0 -8 11 2 15 -4 20 -32 22 -27 2 -39 10 -53 33 -9 17 -17
35 -17 40 0 6 -11 27 -25 47 -20 29 -25 49 -25 99 0 43 -4 63 -12 64 -7 1 -17
2 -23 4 -5 1 -16 3 -24 3 -11 2 -10 6 5 17 10 8 14 15 7 15 -6 0 -13 6 -15 13
-2 8 -9 12 -16 10z"/>
<path d="M31275 15711 c-3 -6 -3 -11 2 -11 4 0 2 -4 -6 -9 -7 -5 -27 -7 -42
-4 -26 4 -29 1 -29 -23 0 -15 -8 -33 -17 -40 -17 -13 -17 -13 2 -14 16 0 17
-2 5 -9 -8 -6 -18 -7 -22 -5 -4 3 -8 -10 -8 -29 0 -35 20 -54 42 -41 5 3 8 0
7 -7 -4 -24 20 -69 36 -69 18 0 20 -17 3 -23 -24 -8 0 -18 34 -14 30 4 31 5
11 12 -16 5 -23 16 -24 34 -3 41 -8 164 -9 184 0 10 -4 16 -9 12 -5 -3 -12 -1
-16 5 -4 6 4 10 19 10 16 0 27 7 31 21 8 23 1 36 -10 20z"/>
<path d="M28756 15644 c-6 -21 -11 -25 -29 -21 -24 6 -77 -32 -77 -56 0 -7 -6
-19 -12 -26 -10 -11 -10 -13 0 -7 6 4 12 4 12 -1 0 -9 -48 -33 -67 -33 -7 0
-13 -6 -13 -14 0 -8 -9 -18 -20 -21 -11 -3 -20 -10 -20 -15 0 -4 9 -6 20 -3
14 4 20 0 20 -11 0 -9 -3 -15 -7 -15 -19 3 -33 -2 -33 -11 0 -6 11 -8 26 -4
20 5 25 3 22 -7 -7 -21 -47 -23 -69 -3 -23 21 -29 16 -32 -22 -2 -25 2 -29 26
-32 15 -2 27 1 27 7 0 6 5 11 11 11 6 0 9 -6 6 -13 -8 -21 276 -15 323 6 33
15 33 16 5 10 -16 -4 -37 -6 -45 -5 -106 9 -176 12 -189 6 -34 -14 -61 -10
-61 9 0 13 5 17 15 14 11 -5 13 0 8 26 -3 18 -10 37 -15 44 -6 8 0 13 22 18
16 4 36 14 42 23 7 9 25 23 41 31 15 8 27 19 27 25 0 6 -5 5 -12 -2 -16 -16
-28 -15 -28 3 0 9 9 15 23 15 24 0 75 50 69 69 -2 6 1 11 7 11 6 0 11 5 11 10
0 22 -28 8 -34 -16z"/>
<path d="M23465 15435 c-18 -14 -43 -24 -62 -25 -26 0 -33 -4 -33 -19 0 -24
-26 -31 -126 -31 -65 0 -81 -3 -81 -15 0 -21 27 -26 130 -22 90 4 106 11 107
47 0 12 12 15 56 13 48 -1 57 2 61 18 4 13 14 19 34 19 22 0 29 5 29 20 0 31
-75 28 -115 -5z"/>
<path d="M15460 15231 c-16 -4 -26 -15 -28 -30 -2 -15 0 -21 7 -17 7 4 11 -1
11 -12 0 -11 -7 -23 -15 -26 -9 -3 -15 -11 -14 -18 3 -29 -2 -39 -27 -48 -18
-7 -24 -16 -22 -32 2 -19 -1 -23 -22 -20 -35 4 -234 2 -238 -3 -2 -2 2 -14 9
-27 11 -20 14 -20 17 -5 4 20 13 22 30 5 9 -9 15 -10 20 -2 8 12 59 15 185 12
36 -1 49 -12 25 -21 -10 -4 -10 -6 -1 -6 6 -1 15 4 18 9 3 6 46 10 96 10 77 0
89 2 89 17 0 12 -3 14 -11 6 -7 -7 -24 -8 -51 -2 -22 5 -47 8 -55 7 -12 -2
-19 12 -28 55 -7 35 -8 60 -2 64 5 3 7 17 4 30 -3 19 0 27 14 30 11 3 19 12
19 19 0 8 -1 14 -2 13 -2 -1 -14 -4 -28 -8z"/>
<path d="M15148 14454 c6 -3 12 -13 12 -21 0 -14 -3 -14 -20 2 -11 10 -23 15
-27 11 -4 -4 -2 -11 5 -15 7 -4 12 -21 10 -37 -5 -76 2 -134 17 -134 8 0 15 5
15 10 0 6 -4 10 -10 10 -5 0 -10 14 -10 30 0 17 5 30 11 30 6 0 9 -7 6 -15 -7
-18 13 -32 22 -16 4 6 15 9 25 5 14 -6 15 -8 2 -18 -15 -11 -17 -39 -3 -52 4
-4 0 -16 -10 -26 -15 -17 -15 -19 2 -38 14 -15 15 -20 4 -21 -8 0 -4 -4 9 -9
12 -5 22 -15 22 -22 0 -9 -3 -9 -10 2 -9 13 -11 13 -20 0 -5 -8 -8 -20 -6 -27
3 -6 -3 -14 -12 -18 -14 -5 -14 -7 -2 -15 9 -6 17 -5 22 3 6 9 8 9 8 0 0 -7 7
-13 15 -13 31 0 14 -20 -17 -21 -31 0 -32 -1 -9 -10 22 -9 23 -13 18 -68 -4
-52 4 -93 17 -81 15 16 24 419 10 454 -5 13 -3 21 4 24 7 2 12 8 12 13 0 6 -4
7 -10 4 -5 -3 -10 3 -10 13 0 12 9 22 23 26 l22 7 -25 11 c-14 6 -34 12 -45
14 -11 1 -33 5 -50 8 -16 4 -24 3 -17 0z"/>
<path d="M14227 14013 c-4 -21 -2 -42 3 -47 7 -7 10 -5 10 4 0 7 3 11 6 7 3
-3 -1 -16 -10 -29 -19 -27 -23 -182 -5 -194 7 -4 10 4 8 22 -4 33 8 57 22 49
5 -4 9 -1 9 4 0 6 -5 11 -10 11 -18 0 -29 44 -14 53 8 5 13 11 10 15 -2 4 11
8 30 8 29 1 34 -2 34 -22 0 -17 -4 -22 -15 -18 -18 7 -20 -7 -4 -23 7 -7 15
-45 19 -85 6 -61 5 -75 -9 -87 -14 -12 -14 -13 7 -8 14 3 26 -1 33 -11 8 -14
9 -12 4 8 -18 67 -26 151 -20 213 l6 67 -26 0 c-14 0 -24 4 -20 10 3 5 12 7
20 3 8 -3 15 0 15 7 0 8 -11 11 -32 8 -38 -6 -59 11 -52 40 3 11 1 22 -4 26
-5 3 -12 -11 -15 -31z"/>
<path d="M23686 11107 c2 -23 4 -55 5 -72 1 -16 5 -35 10 -40 13 -17 -2 -95
-19 -95 -11 0 -12 -3 -3 -13 6 -8 7 -18 3 -23 -4 -4 1 -2 11 5 16 13 17 9 13
-65 -5 -76 -6 -79 -28 -76 -23 4 -23 3 -3 -12 11 -8 26 -16 33 -16 7 0 12 -13
12 -29 0 -16 3 -41 6 -57 5 -26 3 -29 -20 -30 -16 -1 -26 3 -26 12 0 8 -7 14
-15 14 -10 0 -15 11 -15 35 0 19 -5 35 -11 35 -7 0 -8 -22 -4 -67 7 -64 15
-96 15 -60 0 13 9 17 36 17 33 0 36 -2 32 -25 -4 -17 2 -31 20 -47 l24 -23 -7
25 c-5 14 -8 32 -8 40 0 8 -6 92 -14 185 -12 149 -22 302 -23 387 -1 14 -7 29
-14 31 -10 4 -13 -5 -10 -36z"/>
</g>
</svg>
